<mxfile host="app.diagrams.net" modified="2024-06-11T21:05:27.737Z" agent="Mozilla/5.0 (Windows NT 10.0; Win64; x64) AppleWebKit/537.36 (KHTML, like Gecko) Chrome/124.0.0.0 Safari/537.36" etag="5kGSg5fAd9scwzWBLq_X" version="24.5.3" type="device">
  <diagram name="PÃ¡gina-1" id="J_dSeV7Hj5ze-ePWNhds">
    <mxGraphModel dx="1016" dy="1672" grid="1" gridSize="10" guides="1" tooltips="1" connect="1" arrows="1" fold="1" page="1" pageScale="1" pageWidth="827" pageHeight="1169" math="0" shadow="0">
      <root>
        <mxCell id="0" />
        <mxCell id="1" parent="0" />
        <mxCell id="AYSb7tiYscdiB1DCTlH--112" value="" style="shape=table;startSize=0;container=1;collapsible=0;childLayout=tableLayout;" parent="1" vertex="1">
          <mxGeometry x="111" y="273" width="210" height="144.9" as="geometry" />
        </mxCell>
        <mxCell id="AYSb7tiYscdiB1DCTlH--113" value="" style="shape=tableRow;horizontal=0;startSize=0;swimlaneHead=0;swimlaneBody=0;strokeColor=inherit;top=0;left=0;bottom=0;right=0;collapsible=0;dropTarget=0;fillColor=none;points=[[0,0.5],[1,0.5]];portConstraint=eastwest;" parent="AYSb7tiYscdiB1DCTlH--112" vertex="1">
          <mxGeometry width="210" height="29" as="geometry" />
        </mxCell>
        <mxCell id="AYSb7tiYscdiB1DCTlH--114" value="" style="shape=partialRectangle;html=1;whiteSpace=wrap;connectable=0;strokeColor=inherit;overflow=hidden;fillColor=none;top=0;left=0;bottom=0;right=0;pointerEvents=1;" parent="AYSb7tiYscdiB1DCTlH--113" vertex="1">
          <mxGeometry width="42" height="29" as="geometry">
            <mxRectangle width="42" height="29" as="alternateBounds" />
          </mxGeometry>
        </mxCell>
        <mxCell id="AYSb7tiYscdiB1DCTlH--115" value="" style="shape=partialRectangle;html=1;whiteSpace=wrap;connectable=0;strokeColor=inherit;overflow=hidden;fillColor=none;top=0;left=0;bottom=0;right=0;pointerEvents=1;" parent="AYSb7tiYscdiB1DCTlH--113" vertex="1">
          <mxGeometry x="42" width="42" height="29" as="geometry">
            <mxRectangle width="42" height="29" as="alternateBounds" />
          </mxGeometry>
        </mxCell>
        <mxCell id="AYSb7tiYscdiB1DCTlH--116" value="" style="shape=partialRectangle;html=1;whiteSpace=wrap;connectable=0;strokeColor=inherit;overflow=hidden;fillColor=none;top=0;left=0;bottom=0;right=0;pointerEvents=1;" parent="AYSb7tiYscdiB1DCTlH--113" vertex="1">
          <mxGeometry x="84" width="42" height="29" as="geometry">
            <mxRectangle width="42" height="29" as="alternateBounds" />
          </mxGeometry>
        </mxCell>
        <mxCell id="AYSb7tiYscdiB1DCTlH--117" value="" style="shape=partialRectangle;html=1;whiteSpace=wrap;connectable=0;strokeColor=inherit;overflow=hidden;fillColor=none;top=0;left=0;bottom=0;right=0;pointerEvents=1;" parent="AYSb7tiYscdiB1DCTlH--113" vertex="1">
          <mxGeometry x="126" width="42" height="29" as="geometry">
            <mxRectangle width="42" height="29" as="alternateBounds" />
          </mxGeometry>
        </mxCell>
        <mxCell id="AYSb7tiYscdiB1DCTlH--118" value="" style="shape=partialRectangle;html=1;whiteSpace=wrap;connectable=0;strokeColor=inherit;overflow=hidden;fillColor=none;top=0;left=0;bottom=0;right=0;pointerEvents=1;" parent="AYSb7tiYscdiB1DCTlH--113" vertex="1">
          <mxGeometry x="168" width="42" height="29" as="geometry">
            <mxRectangle width="42" height="29" as="alternateBounds" />
          </mxGeometry>
        </mxCell>
        <mxCell id="AYSb7tiYscdiB1DCTlH--119" value="" style="shape=tableRow;horizontal=0;startSize=0;swimlaneHead=0;swimlaneBody=0;strokeColor=inherit;top=0;left=0;bottom=0;right=0;collapsible=0;dropTarget=0;fillColor=none;points=[[0,0.5],[1,0.5]];portConstraint=eastwest;" parent="AYSb7tiYscdiB1DCTlH--112" vertex="1">
          <mxGeometry y="29" width="210" height="29" as="geometry" />
        </mxCell>
        <mxCell id="AYSb7tiYscdiB1DCTlH--120" value="" style="shape=partialRectangle;html=1;whiteSpace=wrap;connectable=0;strokeColor=inherit;overflow=hidden;fillColor=none;top=0;left=0;bottom=0;right=0;pointerEvents=1;" parent="AYSb7tiYscdiB1DCTlH--119" vertex="1">
          <mxGeometry width="42" height="29" as="geometry">
            <mxRectangle width="42" height="29" as="alternateBounds" />
          </mxGeometry>
        </mxCell>
        <mxCell id="AYSb7tiYscdiB1DCTlH--121" value="" style="shape=partialRectangle;html=1;whiteSpace=wrap;connectable=0;strokeColor=inherit;overflow=hidden;fillColor=none;top=0;left=0;bottom=0;right=0;pointerEvents=1;" parent="AYSb7tiYscdiB1DCTlH--119" vertex="1">
          <mxGeometry x="42" width="42" height="29" as="geometry">
            <mxRectangle width="42" height="29" as="alternateBounds" />
          </mxGeometry>
        </mxCell>
        <mxCell id="AYSb7tiYscdiB1DCTlH--122" value="" style="shape=partialRectangle;html=1;whiteSpace=wrap;connectable=0;strokeColor=inherit;overflow=hidden;fillColor=none;top=0;left=0;bottom=0;right=0;pointerEvents=1;" parent="AYSb7tiYscdiB1DCTlH--119" vertex="1">
          <mxGeometry x="84" width="42" height="29" as="geometry">
            <mxRectangle width="42" height="29" as="alternateBounds" />
          </mxGeometry>
        </mxCell>
        <mxCell id="AYSb7tiYscdiB1DCTlH--123" value="" style="shape=partialRectangle;html=1;whiteSpace=wrap;connectable=0;strokeColor=inherit;overflow=hidden;fillColor=none;top=0;left=0;bottom=0;right=0;pointerEvents=1;" parent="AYSb7tiYscdiB1DCTlH--119" vertex="1">
          <mxGeometry x="126" width="42" height="29" as="geometry">
            <mxRectangle width="42" height="29" as="alternateBounds" />
          </mxGeometry>
        </mxCell>
        <mxCell id="AYSb7tiYscdiB1DCTlH--124" value="" style="shape=partialRectangle;html=1;whiteSpace=wrap;connectable=0;strokeColor=inherit;overflow=hidden;fillColor=none;top=0;left=0;bottom=0;right=0;pointerEvents=1;" parent="AYSb7tiYscdiB1DCTlH--119" vertex="1">
          <mxGeometry x="168" width="42" height="29" as="geometry">
            <mxRectangle width="42" height="29" as="alternateBounds" />
          </mxGeometry>
        </mxCell>
        <mxCell id="AYSb7tiYscdiB1DCTlH--125" value="" style="shape=tableRow;horizontal=0;startSize=0;swimlaneHead=0;swimlaneBody=0;strokeColor=inherit;top=0;left=0;bottom=0;right=0;collapsible=0;dropTarget=0;fillColor=none;points=[[0,0.5],[1,0.5]];portConstraint=eastwest;" parent="AYSb7tiYscdiB1DCTlH--112" vertex="1">
          <mxGeometry y="58" width="210" height="29" as="geometry" />
        </mxCell>
        <mxCell id="AYSb7tiYscdiB1DCTlH--126" value="" style="shape=partialRectangle;html=1;whiteSpace=wrap;connectable=0;strokeColor=inherit;overflow=hidden;fillColor=none;top=0;left=0;bottom=0;right=0;pointerEvents=1;" parent="AYSb7tiYscdiB1DCTlH--125" vertex="1">
          <mxGeometry width="42" height="29" as="geometry">
            <mxRectangle width="42" height="29" as="alternateBounds" />
          </mxGeometry>
        </mxCell>
        <mxCell id="AYSb7tiYscdiB1DCTlH--127" value="" style="shape=partialRectangle;html=1;whiteSpace=wrap;connectable=0;strokeColor=inherit;overflow=hidden;fillColor=none;top=0;left=0;bottom=0;right=0;pointerEvents=1;" parent="AYSb7tiYscdiB1DCTlH--125" vertex="1">
          <mxGeometry x="42" width="42" height="29" as="geometry">
            <mxRectangle width="42" height="29" as="alternateBounds" />
          </mxGeometry>
        </mxCell>
        <mxCell id="AYSb7tiYscdiB1DCTlH--128" value="" style="shape=partialRectangle;html=1;whiteSpace=wrap;connectable=0;strokeColor=inherit;overflow=hidden;fillColor=none;top=0;left=0;bottom=0;right=0;pointerEvents=1;" parent="AYSb7tiYscdiB1DCTlH--125" vertex="1">
          <mxGeometry x="84" width="42" height="29" as="geometry">
            <mxRectangle width="42" height="29" as="alternateBounds" />
          </mxGeometry>
        </mxCell>
        <mxCell id="AYSb7tiYscdiB1DCTlH--129" value="" style="shape=partialRectangle;html=1;whiteSpace=wrap;connectable=0;strokeColor=inherit;overflow=hidden;fillColor=none;top=0;left=0;bottom=0;right=0;pointerEvents=1;" parent="AYSb7tiYscdiB1DCTlH--125" vertex="1">
          <mxGeometry x="126" width="42" height="29" as="geometry">
            <mxRectangle width="42" height="29" as="alternateBounds" />
          </mxGeometry>
        </mxCell>
        <mxCell id="AYSb7tiYscdiB1DCTlH--130" value="" style="shape=partialRectangle;html=1;whiteSpace=wrap;connectable=0;strokeColor=inherit;overflow=hidden;fillColor=none;top=0;left=0;bottom=0;right=0;pointerEvents=1;" parent="AYSb7tiYscdiB1DCTlH--125" vertex="1">
          <mxGeometry x="168" width="42" height="29" as="geometry">
            <mxRectangle width="42" height="29" as="alternateBounds" />
          </mxGeometry>
        </mxCell>
        <mxCell id="AYSb7tiYscdiB1DCTlH--131" value="" style="shape=tableRow;horizontal=0;startSize=0;swimlaneHead=0;swimlaneBody=0;strokeColor=inherit;top=0;left=0;bottom=0;right=0;collapsible=0;dropTarget=0;fillColor=none;points=[[0,0.5],[1,0.5]];portConstraint=eastwest;" parent="AYSb7tiYscdiB1DCTlH--112" vertex="1">
          <mxGeometry y="87" width="210" height="29" as="geometry" />
        </mxCell>
        <mxCell id="AYSb7tiYscdiB1DCTlH--132" value="" style="shape=partialRectangle;html=1;whiteSpace=wrap;connectable=0;strokeColor=inherit;overflow=hidden;fillColor=none;top=0;left=0;bottom=0;right=0;pointerEvents=1;" parent="AYSb7tiYscdiB1DCTlH--131" vertex="1">
          <mxGeometry width="42" height="29" as="geometry">
            <mxRectangle width="42" height="29" as="alternateBounds" />
          </mxGeometry>
        </mxCell>
        <mxCell id="AYSb7tiYscdiB1DCTlH--133" value="" style="shape=partialRectangle;html=1;whiteSpace=wrap;connectable=0;strokeColor=inherit;overflow=hidden;fillColor=none;top=0;left=0;bottom=0;right=0;pointerEvents=1;" parent="AYSb7tiYscdiB1DCTlH--131" vertex="1">
          <mxGeometry x="42" width="42" height="29" as="geometry">
            <mxRectangle width="42" height="29" as="alternateBounds" />
          </mxGeometry>
        </mxCell>
        <mxCell id="AYSb7tiYscdiB1DCTlH--134" value="" style="shape=partialRectangle;html=1;whiteSpace=wrap;connectable=0;strokeColor=inherit;overflow=hidden;fillColor=none;top=0;left=0;bottom=0;right=0;pointerEvents=1;" parent="AYSb7tiYscdiB1DCTlH--131" vertex="1">
          <mxGeometry x="84" width="42" height="29" as="geometry">
            <mxRectangle width="42" height="29" as="alternateBounds" />
          </mxGeometry>
        </mxCell>
        <mxCell id="AYSb7tiYscdiB1DCTlH--135" value="" style="shape=partialRectangle;html=1;whiteSpace=wrap;connectable=0;strokeColor=inherit;overflow=hidden;fillColor=none;top=0;left=0;bottom=0;right=0;pointerEvents=1;" parent="AYSb7tiYscdiB1DCTlH--131" vertex="1">
          <mxGeometry x="126" width="42" height="29" as="geometry">
            <mxRectangle width="42" height="29" as="alternateBounds" />
          </mxGeometry>
        </mxCell>
        <mxCell id="AYSb7tiYscdiB1DCTlH--136" value="" style="shape=partialRectangle;html=1;whiteSpace=wrap;connectable=0;strokeColor=inherit;overflow=hidden;fillColor=none;top=0;left=0;bottom=0;right=0;pointerEvents=1;" parent="AYSb7tiYscdiB1DCTlH--131" vertex="1">
          <mxGeometry x="168" width="42" height="29" as="geometry">
            <mxRectangle width="42" height="29" as="alternateBounds" />
          </mxGeometry>
        </mxCell>
        <mxCell id="AYSb7tiYscdiB1DCTlH--137" value="" style="shape=tableRow;horizontal=0;startSize=0;swimlaneHead=0;swimlaneBody=0;strokeColor=inherit;top=0;left=0;bottom=0;right=0;collapsible=0;dropTarget=0;fillColor=none;points=[[0,0.5],[1,0.5]];portConstraint=eastwest;" parent="AYSb7tiYscdiB1DCTlH--112" vertex="1">
          <mxGeometry y="116" width="210" height="29" as="geometry" />
        </mxCell>
        <mxCell id="AYSb7tiYscdiB1DCTlH--138" value="" style="shape=partialRectangle;html=1;whiteSpace=wrap;connectable=0;strokeColor=inherit;overflow=hidden;fillColor=none;top=0;left=0;bottom=0;right=0;pointerEvents=1;" parent="AYSb7tiYscdiB1DCTlH--137" vertex="1">
          <mxGeometry width="42" height="29" as="geometry">
            <mxRectangle width="42" height="29" as="alternateBounds" />
          </mxGeometry>
        </mxCell>
        <mxCell id="AYSb7tiYscdiB1DCTlH--139" value="" style="shape=partialRectangle;html=1;whiteSpace=wrap;connectable=0;strokeColor=inherit;overflow=hidden;fillColor=none;top=0;left=0;bottom=0;right=0;pointerEvents=1;" parent="AYSb7tiYscdiB1DCTlH--137" vertex="1">
          <mxGeometry x="42" width="42" height="29" as="geometry">
            <mxRectangle width="42" height="29" as="alternateBounds" />
          </mxGeometry>
        </mxCell>
        <mxCell id="AYSb7tiYscdiB1DCTlH--140" value="" style="shape=partialRectangle;html=1;whiteSpace=wrap;connectable=0;strokeColor=inherit;overflow=hidden;fillColor=none;top=0;left=0;bottom=0;right=0;pointerEvents=1;" parent="AYSb7tiYscdiB1DCTlH--137" vertex="1">
          <mxGeometry x="84" width="42" height="29" as="geometry">
            <mxRectangle width="42" height="29" as="alternateBounds" />
          </mxGeometry>
        </mxCell>
        <mxCell id="AYSb7tiYscdiB1DCTlH--141" value="" style="shape=partialRectangle;html=1;whiteSpace=wrap;connectable=0;strokeColor=inherit;overflow=hidden;fillColor=none;top=0;left=0;bottom=0;right=0;pointerEvents=1;" parent="AYSb7tiYscdiB1DCTlH--137" vertex="1">
          <mxGeometry x="126" width="42" height="29" as="geometry">
            <mxRectangle width="42" height="29" as="alternateBounds" />
          </mxGeometry>
        </mxCell>
        <mxCell id="AYSb7tiYscdiB1DCTlH--142" value="" style="shape=partialRectangle;html=1;whiteSpace=wrap;connectable=0;strokeColor=inherit;overflow=hidden;fillColor=none;top=0;left=0;bottom=0;right=0;pointerEvents=1;" parent="AYSb7tiYscdiB1DCTlH--137" vertex="1">
          <mxGeometry x="168" width="42" height="29" as="geometry">
            <mxRectangle width="42" height="29" as="alternateBounds" />
          </mxGeometry>
        </mxCell>
        <mxCell id="AYSb7tiYscdiB1DCTlH--589" value="&lt;font style=&quot;font-size: 14px;&quot;&gt;mean&lt;/font&gt;" style="edgeStyle=orthogonalEdgeStyle;rounded=0;orthogonalLoop=1;jettySize=auto;html=1;" parent="1" edge="1">
          <mxGeometry relative="1" as="geometry">
            <mxPoint x="478" y="273" as="targetPoint" />
            <mxPoint x="478" y="208" as="sourcePoint" />
          </mxGeometry>
        </mxCell>
        <mxCell id="AYSb7tiYscdiB1DCTlH--150" value="" style="shape=table;startSize=0;container=1;collapsible=0;childLayout=tableLayout;" parent="1" vertex="1">
          <mxGeometry x="374" y="60" width="210" height="147.57" as="geometry" />
        </mxCell>
        <mxCell id="AYSb7tiYscdiB1DCTlH--151" value="" style="shape=tableRow;horizontal=0;startSize=0;swimlaneHead=0;swimlaneBody=0;strokeColor=inherit;top=0;left=0;bottom=0;right=0;collapsible=0;dropTarget=0;fillColor=none;points=[[0,0.5],[1,0.5]];portConstraint=eastwest;" parent="AYSb7tiYscdiB1DCTlH--150" vertex="1">
          <mxGeometry width="210" height="15" as="geometry" />
        </mxCell>
        <mxCell id="AYSb7tiYscdiB1DCTlH--152" value="" style="shape=partialRectangle;html=1;whiteSpace=wrap;connectable=0;strokeColor=inherit;overflow=hidden;fillColor=none;top=0;left=0;bottom=0;right=0;pointerEvents=1;" parent="AYSb7tiYscdiB1DCTlH--151" vertex="1">
          <mxGeometry width="21" height="15" as="geometry">
            <mxRectangle width="21" height="15" as="alternateBounds" />
          </mxGeometry>
        </mxCell>
        <mxCell id="AYSb7tiYscdiB1DCTlH--153" value="" style="shape=partialRectangle;html=1;whiteSpace=wrap;connectable=0;strokeColor=inherit;overflow=hidden;fillColor=none;top=0;left=0;bottom=0;right=0;pointerEvents=1;" parent="AYSb7tiYscdiB1DCTlH--151" vertex="1">
          <mxGeometry x="21" width="21" height="15" as="geometry">
            <mxRectangle width="21" height="15" as="alternateBounds" />
          </mxGeometry>
        </mxCell>
        <mxCell id="AYSb7tiYscdiB1DCTlH--154" value="" style="shape=partialRectangle;html=1;whiteSpace=wrap;connectable=0;strokeColor=inherit;overflow=hidden;fillColor=none;top=0;left=0;bottom=0;right=0;pointerEvents=1;" parent="AYSb7tiYscdiB1DCTlH--151" vertex="1">
          <mxGeometry x="42" width="21" height="15" as="geometry">
            <mxRectangle width="21" height="15" as="alternateBounds" />
          </mxGeometry>
        </mxCell>
        <mxCell id="AYSb7tiYscdiB1DCTlH--155" value="" style="shape=partialRectangle;html=1;whiteSpace=wrap;connectable=0;strokeColor=inherit;overflow=hidden;fillColor=none;top=0;left=0;bottom=0;right=0;pointerEvents=1;" parent="AYSb7tiYscdiB1DCTlH--151" vertex="1">
          <mxGeometry x="63" width="21" height="15" as="geometry">
            <mxRectangle width="21" height="15" as="alternateBounds" />
          </mxGeometry>
        </mxCell>
        <mxCell id="AYSb7tiYscdiB1DCTlH--156" value="" style="shape=partialRectangle;html=1;whiteSpace=wrap;connectable=0;strokeColor=inherit;overflow=hidden;fillColor=none;top=0;left=0;bottom=0;right=0;pointerEvents=1;" parent="AYSb7tiYscdiB1DCTlH--151" vertex="1">
          <mxGeometry x="84" width="20" height="15" as="geometry">
            <mxRectangle width="20" height="15" as="alternateBounds" />
          </mxGeometry>
        </mxCell>
        <mxCell id="AYSb7tiYscdiB1DCTlH--157" value="" style="shape=partialRectangle;html=1;whiteSpace=wrap;connectable=0;strokeColor=inherit;overflow=hidden;fillColor=none;top=0;left=0;bottom=0;right=0;pointerEvents=1;" parent="AYSb7tiYscdiB1DCTlH--151" vertex="1">
          <mxGeometry x="104" width="22" height="15" as="geometry">
            <mxRectangle width="22" height="15" as="alternateBounds" />
          </mxGeometry>
        </mxCell>
        <mxCell id="AYSb7tiYscdiB1DCTlH--158" value="" style="shape=partialRectangle;html=1;whiteSpace=wrap;connectable=0;strokeColor=inherit;overflow=hidden;fillColor=none;top=0;left=0;bottom=0;right=0;pointerEvents=1;" parent="AYSb7tiYscdiB1DCTlH--151" vertex="1">
          <mxGeometry x="126" width="21" height="15" as="geometry">
            <mxRectangle width="21" height="15" as="alternateBounds" />
          </mxGeometry>
        </mxCell>
        <mxCell id="AYSb7tiYscdiB1DCTlH--159" value="" style="shape=partialRectangle;html=1;whiteSpace=wrap;connectable=0;strokeColor=inherit;overflow=hidden;fillColor=none;top=0;left=0;bottom=0;right=0;pointerEvents=1;" parent="AYSb7tiYscdiB1DCTlH--151" vertex="1">
          <mxGeometry x="147" width="21" height="15" as="geometry">
            <mxRectangle width="21" height="15" as="alternateBounds" />
          </mxGeometry>
        </mxCell>
        <mxCell id="AYSb7tiYscdiB1DCTlH--160" value="" style="shape=partialRectangle;html=1;whiteSpace=wrap;connectable=0;strokeColor=inherit;overflow=hidden;fillColor=none;top=0;left=0;bottom=0;right=0;pointerEvents=1;" parent="AYSb7tiYscdiB1DCTlH--151" vertex="1">
          <mxGeometry x="168" width="21" height="15" as="geometry">
            <mxRectangle width="21" height="15" as="alternateBounds" />
          </mxGeometry>
        </mxCell>
        <mxCell id="AYSb7tiYscdiB1DCTlH--161" value="" style="shape=partialRectangle;html=1;whiteSpace=wrap;connectable=0;strokeColor=inherit;overflow=hidden;fillColor=none;top=0;left=0;bottom=0;right=0;pointerEvents=1;" parent="AYSb7tiYscdiB1DCTlH--151" vertex="1">
          <mxGeometry x="189" width="21" height="15" as="geometry">
            <mxRectangle width="21" height="15" as="alternateBounds" />
          </mxGeometry>
        </mxCell>
        <mxCell id="AYSb7tiYscdiB1DCTlH--162" value="" style="shape=tableRow;horizontal=0;startSize=0;swimlaneHead=0;swimlaneBody=0;strokeColor=inherit;top=0;left=0;bottom=0;right=0;collapsible=0;dropTarget=0;fillColor=none;points=[[0,0.5],[1,0.5]];portConstraint=eastwest;" parent="AYSb7tiYscdiB1DCTlH--150" vertex="1">
          <mxGeometry y="15" width="210" height="15" as="geometry" />
        </mxCell>
        <mxCell id="AYSb7tiYscdiB1DCTlH--163" value="" style="shape=partialRectangle;html=1;whiteSpace=wrap;connectable=0;strokeColor=inherit;overflow=hidden;fillColor=none;top=0;left=0;bottom=0;right=0;pointerEvents=1;" parent="AYSb7tiYscdiB1DCTlH--162" vertex="1">
          <mxGeometry width="21" height="15" as="geometry">
            <mxRectangle width="21" height="15" as="alternateBounds" />
          </mxGeometry>
        </mxCell>
        <mxCell id="AYSb7tiYscdiB1DCTlH--164" value="" style="shape=partialRectangle;html=1;whiteSpace=wrap;connectable=0;strokeColor=inherit;overflow=hidden;fillColor=none;top=0;left=0;bottom=0;right=0;pointerEvents=1;" parent="AYSb7tiYscdiB1DCTlH--162" vertex="1">
          <mxGeometry x="21" width="21" height="15" as="geometry">
            <mxRectangle width="21" height="15" as="alternateBounds" />
          </mxGeometry>
        </mxCell>
        <mxCell id="AYSb7tiYscdiB1DCTlH--165" value="" style="shape=partialRectangle;html=1;whiteSpace=wrap;connectable=0;strokeColor=inherit;overflow=hidden;fillColor=none;top=0;left=0;bottom=0;right=0;pointerEvents=1;" parent="AYSb7tiYscdiB1DCTlH--162" vertex="1">
          <mxGeometry x="42" width="21" height="15" as="geometry">
            <mxRectangle width="21" height="15" as="alternateBounds" />
          </mxGeometry>
        </mxCell>
        <mxCell id="AYSb7tiYscdiB1DCTlH--166" value="" style="shape=partialRectangle;html=1;whiteSpace=wrap;connectable=0;strokeColor=inherit;overflow=hidden;fillColor=none;top=0;left=0;bottom=0;right=0;pointerEvents=1;" parent="AYSb7tiYscdiB1DCTlH--162" vertex="1">
          <mxGeometry x="63" width="21" height="15" as="geometry">
            <mxRectangle width="21" height="15" as="alternateBounds" />
          </mxGeometry>
        </mxCell>
        <mxCell id="AYSb7tiYscdiB1DCTlH--167" value="" style="shape=partialRectangle;html=1;whiteSpace=wrap;connectable=0;strokeColor=inherit;overflow=hidden;fillColor=none;top=0;left=0;bottom=0;right=0;pointerEvents=1;" parent="AYSb7tiYscdiB1DCTlH--162" vertex="1">
          <mxGeometry x="84" width="20" height="15" as="geometry">
            <mxRectangle width="20" height="15" as="alternateBounds" />
          </mxGeometry>
        </mxCell>
        <mxCell id="AYSb7tiYscdiB1DCTlH--168" value="" style="shape=partialRectangle;html=1;whiteSpace=wrap;connectable=0;strokeColor=inherit;overflow=hidden;fillColor=none;top=0;left=0;bottom=0;right=0;pointerEvents=1;" parent="AYSb7tiYscdiB1DCTlH--162" vertex="1">
          <mxGeometry x="104" width="22" height="15" as="geometry">
            <mxRectangle width="22" height="15" as="alternateBounds" />
          </mxGeometry>
        </mxCell>
        <mxCell id="AYSb7tiYscdiB1DCTlH--169" value="" style="shape=partialRectangle;html=1;whiteSpace=wrap;connectable=0;strokeColor=inherit;overflow=hidden;fillColor=none;top=0;left=0;bottom=0;right=0;pointerEvents=1;" parent="AYSb7tiYscdiB1DCTlH--162" vertex="1">
          <mxGeometry x="126" width="21" height="15" as="geometry">
            <mxRectangle width="21" height="15" as="alternateBounds" />
          </mxGeometry>
        </mxCell>
        <mxCell id="AYSb7tiYscdiB1DCTlH--170" value="" style="shape=partialRectangle;html=1;whiteSpace=wrap;connectable=0;strokeColor=inherit;overflow=hidden;fillColor=none;top=0;left=0;bottom=0;right=0;pointerEvents=1;" parent="AYSb7tiYscdiB1DCTlH--162" vertex="1">
          <mxGeometry x="147" width="21" height="15" as="geometry">
            <mxRectangle width="21" height="15" as="alternateBounds" />
          </mxGeometry>
        </mxCell>
        <mxCell id="AYSb7tiYscdiB1DCTlH--171" value="" style="shape=partialRectangle;html=1;whiteSpace=wrap;connectable=0;strokeColor=inherit;overflow=hidden;fillColor=none;top=0;left=0;bottom=0;right=0;pointerEvents=1;" parent="AYSb7tiYscdiB1DCTlH--162" vertex="1">
          <mxGeometry x="168" width="21" height="15" as="geometry">
            <mxRectangle width="21" height="15" as="alternateBounds" />
          </mxGeometry>
        </mxCell>
        <mxCell id="AYSb7tiYscdiB1DCTlH--172" value="" style="shape=partialRectangle;html=1;whiteSpace=wrap;connectable=0;strokeColor=inherit;overflow=hidden;fillColor=none;top=0;left=0;bottom=0;right=0;pointerEvents=1;" parent="AYSb7tiYscdiB1DCTlH--162" vertex="1">
          <mxGeometry x="189" width="21" height="15" as="geometry">
            <mxRectangle width="21" height="15" as="alternateBounds" />
          </mxGeometry>
        </mxCell>
        <mxCell id="AYSb7tiYscdiB1DCTlH--173" value="" style="shape=tableRow;horizontal=0;startSize=0;swimlaneHead=0;swimlaneBody=0;strokeColor=inherit;top=0;left=0;bottom=0;right=0;collapsible=0;dropTarget=0;fillColor=none;points=[[0,0.5],[1,0.5]];portConstraint=eastwest;" parent="AYSb7tiYscdiB1DCTlH--150" vertex="1">
          <mxGeometry y="30" width="210" height="14" as="geometry" />
        </mxCell>
        <mxCell id="AYSb7tiYscdiB1DCTlH--174" value="" style="shape=partialRectangle;html=1;whiteSpace=wrap;connectable=0;strokeColor=inherit;overflow=hidden;fillColor=none;top=0;left=0;bottom=0;right=0;pointerEvents=1;" parent="AYSb7tiYscdiB1DCTlH--173" vertex="1">
          <mxGeometry width="21" height="14" as="geometry">
            <mxRectangle width="21" height="14" as="alternateBounds" />
          </mxGeometry>
        </mxCell>
        <mxCell id="AYSb7tiYscdiB1DCTlH--175" value="" style="shape=partialRectangle;html=1;whiteSpace=wrap;connectable=0;strokeColor=inherit;overflow=hidden;fillColor=none;top=0;left=0;bottom=0;right=0;pointerEvents=1;" parent="AYSb7tiYscdiB1DCTlH--173" vertex="1">
          <mxGeometry x="21" width="21" height="14" as="geometry">
            <mxRectangle width="21" height="14" as="alternateBounds" />
          </mxGeometry>
        </mxCell>
        <mxCell id="AYSb7tiYscdiB1DCTlH--176" value="" style="shape=partialRectangle;html=1;whiteSpace=wrap;connectable=0;strokeColor=inherit;overflow=hidden;fillColor=none;top=0;left=0;bottom=0;right=0;pointerEvents=1;" parent="AYSb7tiYscdiB1DCTlH--173" vertex="1">
          <mxGeometry x="42" width="21" height="14" as="geometry">
            <mxRectangle width="21" height="14" as="alternateBounds" />
          </mxGeometry>
        </mxCell>
        <mxCell id="AYSb7tiYscdiB1DCTlH--177" value="" style="shape=partialRectangle;html=1;whiteSpace=wrap;connectable=0;strokeColor=inherit;overflow=hidden;fillColor=none;top=0;left=0;bottom=0;right=0;pointerEvents=1;" parent="AYSb7tiYscdiB1DCTlH--173" vertex="1">
          <mxGeometry x="63" width="21" height="14" as="geometry">
            <mxRectangle width="21" height="14" as="alternateBounds" />
          </mxGeometry>
        </mxCell>
        <mxCell id="AYSb7tiYscdiB1DCTlH--178" value="" style="shape=partialRectangle;html=1;whiteSpace=wrap;connectable=0;strokeColor=inherit;overflow=hidden;fillColor=none;top=0;left=0;bottom=0;right=0;pointerEvents=1;" parent="AYSb7tiYscdiB1DCTlH--173" vertex="1">
          <mxGeometry x="84" width="20" height="14" as="geometry">
            <mxRectangle width="20" height="14" as="alternateBounds" />
          </mxGeometry>
        </mxCell>
        <mxCell id="AYSb7tiYscdiB1DCTlH--179" value="" style="shape=partialRectangle;html=1;whiteSpace=wrap;connectable=0;strokeColor=inherit;overflow=hidden;fillColor=none;top=0;left=0;bottom=0;right=0;pointerEvents=1;" parent="AYSb7tiYscdiB1DCTlH--173" vertex="1">
          <mxGeometry x="104" width="22" height="14" as="geometry">
            <mxRectangle width="22" height="14" as="alternateBounds" />
          </mxGeometry>
        </mxCell>
        <mxCell id="AYSb7tiYscdiB1DCTlH--180" value="" style="shape=partialRectangle;html=1;whiteSpace=wrap;connectable=0;strokeColor=inherit;overflow=hidden;fillColor=none;top=0;left=0;bottom=0;right=0;pointerEvents=1;" parent="AYSb7tiYscdiB1DCTlH--173" vertex="1">
          <mxGeometry x="126" width="21" height="14" as="geometry">
            <mxRectangle width="21" height="14" as="alternateBounds" />
          </mxGeometry>
        </mxCell>
        <mxCell id="AYSb7tiYscdiB1DCTlH--181" value="" style="shape=partialRectangle;html=1;whiteSpace=wrap;connectable=0;strokeColor=inherit;overflow=hidden;fillColor=none;top=0;left=0;bottom=0;right=0;pointerEvents=1;" parent="AYSb7tiYscdiB1DCTlH--173" vertex="1">
          <mxGeometry x="147" width="21" height="14" as="geometry">
            <mxRectangle width="21" height="14" as="alternateBounds" />
          </mxGeometry>
        </mxCell>
        <mxCell id="AYSb7tiYscdiB1DCTlH--182" value="" style="shape=partialRectangle;html=1;whiteSpace=wrap;connectable=0;strokeColor=inherit;overflow=hidden;fillColor=none;top=0;left=0;bottom=0;right=0;pointerEvents=1;" parent="AYSb7tiYscdiB1DCTlH--173" vertex="1">
          <mxGeometry x="168" width="21" height="14" as="geometry">
            <mxRectangle width="21" height="14" as="alternateBounds" />
          </mxGeometry>
        </mxCell>
        <mxCell id="AYSb7tiYscdiB1DCTlH--183" value="" style="shape=partialRectangle;html=1;whiteSpace=wrap;connectable=0;strokeColor=inherit;overflow=hidden;fillColor=none;top=0;left=0;bottom=0;right=0;pointerEvents=1;" parent="AYSb7tiYscdiB1DCTlH--173" vertex="1">
          <mxGeometry x="189" width="21" height="14" as="geometry">
            <mxRectangle width="21" height="14" as="alternateBounds" />
          </mxGeometry>
        </mxCell>
        <mxCell id="AYSb7tiYscdiB1DCTlH--184" value="" style="shape=tableRow;horizontal=0;startSize=0;swimlaneHead=0;swimlaneBody=0;strokeColor=inherit;top=0;left=0;bottom=0;right=0;collapsible=0;dropTarget=0;fillColor=none;points=[[0,0.5],[1,0.5]];portConstraint=eastwest;" parent="AYSb7tiYscdiB1DCTlH--150" vertex="1">
          <mxGeometry y="44" width="210" height="15" as="geometry" />
        </mxCell>
        <mxCell id="AYSb7tiYscdiB1DCTlH--185" value="" style="shape=partialRectangle;html=1;whiteSpace=wrap;connectable=0;strokeColor=inherit;overflow=hidden;fillColor=none;top=0;left=0;bottom=0;right=0;pointerEvents=1;" parent="AYSb7tiYscdiB1DCTlH--184" vertex="1">
          <mxGeometry width="21" height="15" as="geometry">
            <mxRectangle width="21" height="15" as="alternateBounds" />
          </mxGeometry>
        </mxCell>
        <mxCell id="AYSb7tiYscdiB1DCTlH--186" value="" style="shape=partialRectangle;html=1;whiteSpace=wrap;connectable=0;strokeColor=inherit;overflow=hidden;fillColor=none;top=0;left=0;bottom=0;right=0;pointerEvents=1;" parent="AYSb7tiYscdiB1DCTlH--184" vertex="1">
          <mxGeometry x="21" width="21" height="15" as="geometry">
            <mxRectangle width="21" height="15" as="alternateBounds" />
          </mxGeometry>
        </mxCell>
        <mxCell id="AYSb7tiYscdiB1DCTlH--187" value="" style="shape=partialRectangle;html=1;whiteSpace=wrap;connectable=0;strokeColor=inherit;overflow=hidden;fillColor=none;top=0;left=0;bottom=0;right=0;pointerEvents=1;" parent="AYSb7tiYscdiB1DCTlH--184" vertex="1">
          <mxGeometry x="42" width="21" height="15" as="geometry">
            <mxRectangle width="21" height="15" as="alternateBounds" />
          </mxGeometry>
        </mxCell>
        <mxCell id="AYSb7tiYscdiB1DCTlH--188" value="" style="shape=partialRectangle;html=1;whiteSpace=wrap;connectable=0;strokeColor=inherit;overflow=hidden;fillColor=none;top=0;left=0;bottom=0;right=0;pointerEvents=1;" parent="AYSb7tiYscdiB1DCTlH--184" vertex="1">
          <mxGeometry x="63" width="21" height="15" as="geometry">
            <mxRectangle width="21" height="15" as="alternateBounds" />
          </mxGeometry>
        </mxCell>
        <mxCell id="AYSb7tiYscdiB1DCTlH--189" value="" style="shape=partialRectangle;html=1;whiteSpace=wrap;connectable=0;strokeColor=inherit;overflow=hidden;fillColor=none;top=0;left=0;bottom=0;right=0;pointerEvents=1;" parent="AYSb7tiYscdiB1DCTlH--184" vertex="1">
          <mxGeometry x="84" width="20" height="15" as="geometry">
            <mxRectangle width="20" height="15" as="alternateBounds" />
          </mxGeometry>
        </mxCell>
        <mxCell id="AYSb7tiYscdiB1DCTlH--190" value="" style="shape=partialRectangle;html=1;whiteSpace=wrap;connectable=0;strokeColor=inherit;overflow=hidden;fillColor=none;top=0;left=0;bottom=0;right=0;pointerEvents=1;" parent="AYSb7tiYscdiB1DCTlH--184" vertex="1">
          <mxGeometry x="104" width="22" height="15" as="geometry">
            <mxRectangle width="22" height="15" as="alternateBounds" />
          </mxGeometry>
        </mxCell>
        <mxCell id="AYSb7tiYscdiB1DCTlH--191" value="" style="shape=partialRectangle;html=1;whiteSpace=wrap;connectable=0;strokeColor=inherit;overflow=hidden;fillColor=none;top=0;left=0;bottom=0;right=0;pointerEvents=1;" parent="AYSb7tiYscdiB1DCTlH--184" vertex="1">
          <mxGeometry x="126" width="21" height="15" as="geometry">
            <mxRectangle width="21" height="15" as="alternateBounds" />
          </mxGeometry>
        </mxCell>
        <mxCell id="AYSb7tiYscdiB1DCTlH--192" value="" style="shape=partialRectangle;html=1;whiteSpace=wrap;connectable=0;strokeColor=inherit;overflow=hidden;fillColor=none;top=0;left=0;bottom=0;right=0;pointerEvents=1;" parent="AYSb7tiYscdiB1DCTlH--184" vertex="1">
          <mxGeometry x="147" width="21" height="15" as="geometry">
            <mxRectangle width="21" height="15" as="alternateBounds" />
          </mxGeometry>
        </mxCell>
        <mxCell id="AYSb7tiYscdiB1DCTlH--193" value="" style="shape=partialRectangle;html=1;whiteSpace=wrap;connectable=0;strokeColor=inherit;overflow=hidden;fillColor=none;top=0;left=0;bottom=0;right=0;pointerEvents=1;" parent="AYSb7tiYscdiB1DCTlH--184" vertex="1">
          <mxGeometry x="168" width="21" height="15" as="geometry">
            <mxRectangle width="21" height="15" as="alternateBounds" />
          </mxGeometry>
        </mxCell>
        <mxCell id="AYSb7tiYscdiB1DCTlH--194" value="" style="shape=partialRectangle;html=1;whiteSpace=wrap;connectable=0;strokeColor=inherit;overflow=hidden;fillColor=none;top=0;left=0;bottom=0;right=0;pointerEvents=1;" parent="AYSb7tiYscdiB1DCTlH--184" vertex="1">
          <mxGeometry x="189" width="21" height="15" as="geometry">
            <mxRectangle width="21" height="15" as="alternateBounds" />
          </mxGeometry>
        </mxCell>
        <mxCell id="AYSb7tiYscdiB1DCTlH--195" value="" style="shape=tableRow;horizontal=0;startSize=0;swimlaneHead=0;swimlaneBody=0;strokeColor=inherit;top=0;left=0;bottom=0;right=0;collapsible=0;dropTarget=0;fillColor=none;points=[[0,0.5],[1,0.5]];portConstraint=eastwest;" parent="AYSb7tiYscdiB1DCTlH--150" vertex="1">
          <mxGeometry y="59" width="210" height="15" as="geometry" />
        </mxCell>
        <mxCell id="AYSb7tiYscdiB1DCTlH--196" value="" style="shape=partialRectangle;html=1;whiteSpace=wrap;connectable=0;strokeColor=inherit;overflow=hidden;fillColor=none;top=0;left=0;bottom=0;right=0;pointerEvents=1;" parent="AYSb7tiYscdiB1DCTlH--195" vertex="1">
          <mxGeometry width="21" height="15" as="geometry">
            <mxRectangle width="21" height="15" as="alternateBounds" />
          </mxGeometry>
        </mxCell>
        <mxCell id="AYSb7tiYscdiB1DCTlH--197" value="" style="shape=partialRectangle;html=1;whiteSpace=wrap;connectable=0;strokeColor=inherit;overflow=hidden;fillColor=none;top=0;left=0;bottom=0;right=0;pointerEvents=1;" parent="AYSb7tiYscdiB1DCTlH--195" vertex="1">
          <mxGeometry x="21" width="21" height="15" as="geometry">
            <mxRectangle width="21" height="15" as="alternateBounds" />
          </mxGeometry>
        </mxCell>
        <mxCell id="AYSb7tiYscdiB1DCTlH--198" value="" style="shape=partialRectangle;html=1;whiteSpace=wrap;connectable=0;strokeColor=inherit;overflow=hidden;fillColor=none;top=0;left=0;bottom=0;right=0;pointerEvents=1;" parent="AYSb7tiYscdiB1DCTlH--195" vertex="1">
          <mxGeometry x="42" width="21" height="15" as="geometry">
            <mxRectangle width="21" height="15" as="alternateBounds" />
          </mxGeometry>
        </mxCell>
        <mxCell id="AYSb7tiYscdiB1DCTlH--199" value="" style="shape=partialRectangle;html=1;whiteSpace=wrap;connectable=0;strokeColor=inherit;overflow=hidden;fillColor=none;top=0;left=0;bottom=0;right=0;pointerEvents=1;" parent="AYSb7tiYscdiB1DCTlH--195" vertex="1">
          <mxGeometry x="63" width="21" height="15" as="geometry">
            <mxRectangle width="21" height="15" as="alternateBounds" />
          </mxGeometry>
        </mxCell>
        <mxCell id="AYSb7tiYscdiB1DCTlH--200" value="" style="shape=partialRectangle;html=1;whiteSpace=wrap;connectable=0;strokeColor=inherit;overflow=hidden;fillColor=none;top=0;left=0;bottom=0;right=0;pointerEvents=1;" parent="AYSb7tiYscdiB1DCTlH--195" vertex="1">
          <mxGeometry x="84" width="20" height="15" as="geometry">
            <mxRectangle width="20" height="15" as="alternateBounds" />
          </mxGeometry>
        </mxCell>
        <mxCell id="AYSb7tiYscdiB1DCTlH--201" value="" style="shape=partialRectangle;html=1;whiteSpace=wrap;connectable=0;strokeColor=inherit;overflow=hidden;fillColor=none;top=0;left=0;bottom=0;right=0;pointerEvents=1;" parent="AYSb7tiYscdiB1DCTlH--195" vertex="1">
          <mxGeometry x="104" width="22" height="15" as="geometry">
            <mxRectangle width="22" height="15" as="alternateBounds" />
          </mxGeometry>
        </mxCell>
        <mxCell id="AYSb7tiYscdiB1DCTlH--202" value="" style="shape=partialRectangle;html=1;whiteSpace=wrap;connectable=0;strokeColor=inherit;overflow=hidden;fillColor=none;top=0;left=0;bottom=0;right=0;pointerEvents=1;" parent="AYSb7tiYscdiB1DCTlH--195" vertex="1">
          <mxGeometry x="126" width="21" height="15" as="geometry">
            <mxRectangle width="21" height="15" as="alternateBounds" />
          </mxGeometry>
        </mxCell>
        <mxCell id="AYSb7tiYscdiB1DCTlH--203" value="" style="shape=partialRectangle;html=1;whiteSpace=wrap;connectable=0;strokeColor=inherit;overflow=hidden;fillColor=none;top=0;left=0;bottom=0;right=0;pointerEvents=1;" parent="AYSb7tiYscdiB1DCTlH--195" vertex="1">
          <mxGeometry x="147" width="21" height="15" as="geometry">
            <mxRectangle width="21" height="15" as="alternateBounds" />
          </mxGeometry>
        </mxCell>
        <mxCell id="AYSb7tiYscdiB1DCTlH--204" value="" style="shape=partialRectangle;html=1;whiteSpace=wrap;connectable=0;strokeColor=inherit;overflow=hidden;fillColor=none;top=0;left=0;bottom=0;right=0;pointerEvents=1;" parent="AYSb7tiYscdiB1DCTlH--195" vertex="1">
          <mxGeometry x="168" width="21" height="15" as="geometry">
            <mxRectangle width="21" height="15" as="alternateBounds" />
          </mxGeometry>
        </mxCell>
        <mxCell id="AYSb7tiYscdiB1DCTlH--205" value="" style="shape=partialRectangle;html=1;whiteSpace=wrap;connectable=0;strokeColor=inherit;overflow=hidden;fillColor=none;top=0;left=0;bottom=0;right=0;pointerEvents=1;" parent="AYSb7tiYscdiB1DCTlH--195" vertex="1">
          <mxGeometry x="189" width="21" height="15" as="geometry">
            <mxRectangle width="21" height="15" as="alternateBounds" />
          </mxGeometry>
        </mxCell>
        <mxCell id="AYSb7tiYscdiB1DCTlH--206" value="" style="shape=tableRow;horizontal=0;startSize=0;swimlaneHead=0;swimlaneBody=0;strokeColor=inherit;top=0;left=0;bottom=0;right=0;collapsible=0;dropTarget=0;fillColor=none;points=[[0,0.5],[1,0.5]];portConstraint=eastwest;" parent="AYSb7tiYscdiB1DCTlH--150" vertex="1">
          <mxGeometry y="74" width="210" height="15" as="geometry" />
        </mxCell>
        <mxCell id="AYSb7tiYscdiB1DCTlH--207" value="" style="shape=partialRectangle;html=1;whiteSpace=wrap;connectable=0;strokeColor=inherit;overflow=hidden;fillColor=none;top=0;left=0;bottom=0;right=0;pointerEvents=1;" parent="AYSb7tiYscdiB1DCTlH--206" vertex="1">
          <mxGeometry width="21" height="15" as="geometry">
            <mxRectangle width="21" height="15" as="alternateBounds" />
          </mxGeometry>
        </mxCell>
        <mxCell id="AYSb7tiYscdiB1DCTlH--208" value="" style="shape=partialRectangle;html=1;whiteSpace=wrap;connectable=0;strokeColor=inherit;overflow=hidden;fillColor=none;top=0;left=0;bottom=0;right=0;pointerEvents=1;" parent="AYSb7tiYscdiB1DCTlH--206" vertex="1">
          <mxGeometry x="21" width="21" height="15" as="geometry">
            <mxRectangle width="21" height="15" as="alternateBounds" />
          </mxGeometry>
        </mxCell>
        <mxCell id="AYSb7tiYscdiB1DCTlH--209" value="" style="shape=partialRectangle;html=1;whiteSpace=wrap;connectable=0;strokeColor=inherit;overflow=hidden;fillColor=none;top=0;left=0;bottom=0;right=0;pointerEvents=1;" parent="AYSb7tiYscdiB1DCTlH--206" vertex="1">
          <mxGeometry x="42" width="21" height="15" as="geometry">
            <mxRectangle width="21" height="15" as="alternateBounds" />
          </mxGeometry>
        </mxCell>
        <mxCell id="AYSb7tiYscdiB1DCTlH--210" value="" style="shape=partialRectangle;html=1;whiteSpace=wrap;connectable=0;strokeColor=inherit;overflow=hidden;fillColor=none;top=0;left=0;bottom=0;right=0;pointerEvents=1;" parent="AYSb7tiYscdiB1DCTlH--206" vertex="1">
          <mxGeometry x="63" width="21" height="15" as="geometry">
            <mxRectangle width="21" height="15" as="alternateBounds" />
          </mxGeometry>
        </mxCell>
        <mxCell id="AYSb7tiYscdiB1DCTlH--211" value="" style="shape=partialRectangle;html=1;whiteSpace=wrap;connectable=0;strokeColor=inherit;overflow=hidden;fillColor=none;top=0;left=0;bottom=0;right=0;pointerEvents=1;" parent="AYSb7tiYscdiB1DCTlH--206" vertex="1">
          <mxGeometry x="84" width="20" height="15" as="geometry">
            <mxRectangle width="20" height="15" as="alternateBounds" />
          </mxGeometry>
        </mxCell>
        <mxCell id="AYSb7tiYscdiB1DCTlH--212" value="" style="shape=partialRectangle;html=1;whiteSpace=wrap;connectable=0;strokeColor=inherit;overflow=hidden;fillColor=none;top=0;left=0;bottom=0;right=0;pointerEvents=1;" parent="AYSb7tiYscdiB1DCTlH--206" vertex="1">
          <mxGeometry x="104" width="22" height="15" as="geometry">
            <mxRectangle width="22" height="15" as="alternateBounds" />
          </mxGeometry>
        </mxCell>
        <mxCell id="AYSb7tiYscdiB1DCTlH--213" value="" style="shape=partialRectangle;html=1;whiteSpace=wrap;connectable=0;strokeColor=inherit;overflow=hidden;fillColor=none;top=0;left=0;bottom=0;right=0;pointerEvents=1;" parent="AYSb7tiYscdiB1DCTlH--206" vertex="1">
          <mxGeometry x="126" width="21" height="15" as="geometry">
            <mxRectangle width="21" height="15" as="alternateBounds" />
          </mxGeometry>
        </mxCell>
        <mxCell id="AYSb7tiYscdiB1DCTlH--214" value="" style="shape=partialRectangle;html=1;whiteSpace=wrap;connectable=0;strokeColor=inherit;overflow=hidden;fillColor=none;top=0;left=0;bottom=0;right=0;pointerEvents=1;" parent="AYSb7tiYscdiB1DCTlH--206" vertex="1">
          <mxGeometry x="147" width="21" height="15" as="geometry">
            <mxRectangle width="21" height="15" as="alternateBounds" />
          </mxGeometry>
        </mxCell>
        <mxCell id="AYSb7tiYscdiB1DCTlH--215" value="" style="shape=partialRectangle;html=1;whiteSpace=wrap;connectable=0;strokeColor=inherit;overflow=hidden;fillColor=none;top=0;left=0;bottom=0;right=0;pointerEvents=1;" parent="AYSb7tiYscdiB1DCTlH--206" vertex="1">
          <mxGeometry x="168" width="21" height="15" as="geometry">
            <mxRectangle width="21" height="15" as="alternateBounds" />
          </mxGeometry>
        </mxCell>
        <mxCell id="AYSb7tiYscdiB1DCTlH--216" value="" style="shape=partialRectangle;html=1;whiteSpace=wrap;connectable=0;strokeColor=inherit;overflow=hidden;fillColor=none;top=0;left=0;bottom=0;right=0;pointerEvents=1;" parent="AYSb7tiYscdiB1DCTlH--206" vertex="1">
          <mxGeometry x="189" width="21" height="15" as="geometry">
            <mxRectangle width="21" height="15" as="alternateBounds" />
          </mxGeometry>
        </mxCell>
        <mxCell id="AYSb7tiYscdiB1DCTlH--217" value="" style="shape=tableRow;horizontal=0;startSize=0;swimlaneHead=0;swimlaneBody=0;strokeColor=inherit;top=0;left=0;bottom=0;right=0;collapsible=0;dropTarget=0;fillColor=none;points=[[0,0.5],[1,0.5]];portConstraint=eastwest;" parent="AYSb7tiYscdiB1DCTlH--150" vertex="1">
          <mxGeometry y="89" width="210" height="14" as="geometry" />
        </mxCell>
        <mxCell id="AYSb7tiYscdiB1DCTlH--218" value="" style="shape=partialRectangle;html=1;whiteSpace=wrap;connectable=0;strokeColor=inherit;overflow=hidden;fillColor=none;top=0;left=0;bottom=0;right=0;pointerEvents=1;" parent="AYSb7tiYscdiB1DCTlH--217" vertex="1">
          <mxGeometry width="21" height="14" as="geometry">
            <mxRectangle width="21" height="14" as="alternateBounds" />
          </mxGeometry>
        </mxCell>
        <mxCell id="AYSb7tiYscdiB1DCTlH--219" value="" style="shape=partialRectangle;html=1;whiteSpace=wrap;connectable=0;strokeColor=inherit;overflow=hidden;fillColor=none;top=0;left=0;bottom=0;right=0;pointerEvents=1;" parent="AYSb7tiYscdiB1DCTlH--217" vertex="1">
          <mxGeometry x="21" width="21" height="14" as="geometry">
            <mxRectangle width="21" height="14" as="alternateBounds" />
          </mxGeometry>
        </mxCell>
        <mxCell id="AYSb7tiYscdiB1DCTlH--220" value="" style="shape=partialRectangle;html=1;whiteSpace=wrap;connectable=0;strokeColor=inherit;overflow=hidden;fillColor=none;top=0;left=0;bottom=0;right=0;pointerEvents=1;" parent="AYSb7tiYscdiB1DCTlH--217" vertex="1">
          <mxGeometry x="42" width="21" height="14" as="geometry">
            <mxRectangle width="21" height="14" as="alternateBounds" />
          </mxGeometry>
        </mxCell>
        <mxCell id="AYSb7tiYscdiB1DCTlH--221" value="" style="shape=partialRectangle;html=1;whiteSpace=wrap;connectable=0;strokeColor=inherit;overflow=hidden;fillColor=none;top=0;left=0;bottom=0;right=0;pointerEvents=1;" parent="AYSb7tiYscdiB1DCTlH--217" vertex="1">
          <mxGeometry x="63" width="21" height="14" as="geometry">
            <mxRectangle width="21" height="14" as="alternateBounds" />
          </mxGeometry>
        </mxCell>
        <mxCell id="AYSb7tiYscdiB1DCTlH--222" value="" style="shape=partialRectangle;html=1;whiteSpace=wrap;connectable=0;strokeColor=inherit;overflow=hidden;fillColor=none;top=0;left=0;bottom=0;right=0;pointerEvents=1;" parent="AYSb7tiYscdiB1DCTlH--217" vertex="1">
          <mxGeometry x="84" width="20" height="14" as="geometry">
            <mxRectangle width="20" height="14" as="alternateBounds" />
          </mxGeometry>
        </mxCell>
        <mxCell id="AYSb7tiYscdiB1DCTlH--223" value="" style="shape=partialRectangle;html=1;whiteSpace=wrap;connectable=0;strokeColor=inherit;overflow=hidden;fillColor=none;top=0;left=0;bottom=0;right=0;pointerEvents=1;" parent="AYSb7tiYscdiB1DCTlH--217" vertex="1">
          <mxGeometry x="104" width="22" height="14" as="geometry">
            <mxRectangle width="22" height="14" as="alternateBounds" />
          </mxGeometry>
        </mxCell>
        <mxCell id="AYSb7tiYscdiB1DCTlH--224" value="" style="shape=partialRectangle;html=1;whiteSpace=wrap;connectable=0;strokeColor=inherit;overflow=hidden;fillColor=none;top=0;left=0;bottom=0;right=0;pointerEvents=1;" parent="AYSb7tiYscdiB1DCTlH--217" vertex="1">
          <mxGeometry x="126" width="21" height="14" as="geometry">
            <mxRectangle width="21" height="14" as="alternateBounds" />
          </mxGeometry>
        </mxCell>
        <mxCell id="AYSb7tiYscdiB1DCTlH--225" value="" style="shape=partialRectangle;html=1;whiteSpace=wrap;connectable=0;strokeColor=inherit;overflow=hidden;fillColor=none;top=0;left=0;bottom=0;right=0;pointerEvents=1;" parent="AYSb7tiYscdiB1DCTlH--217" vertex="1">
          <mxGeometry x="147" width="21" height="14" as="geometry">
            <mxRectangle width="21" height="14" as="alternateBounds" />
          </mxGeometry>
        </mxCell>
        <mxCell id="AYSb7tiYscdiB1DCTlH--226" value="" style="shape=partialRectangle;html=1;whiteSpace=wrap;connectable=0;strokeColor=inherit;overflow=hidden;fillColor=none;top=0;left=0;bottom=0;right=0;pointerEvents=1;" parent="AYSb7tiYscdiB1DCTlH--217" vertex="1">
          <mxGeometry x="168" width="21" height="14" as="geometry">
            <mxRectangle width="21" height="14" as="alternateBounds" />
          </mxGeometry>
        </mxCell>
        <mxCell id="AYSb7tiYscdiB1DCTlH--227" value="" style="shape=partialRectangle;html=1;whiteSpace=wrap;connectable=0;strokeColor=inherit;overflow=hidden;fillColor=none;top=0;left=0;bottom=0;right=0;pointerEvents=1;" parent="AYSb7tiYscdiB1DCTlH--217" vertex="1">
          <mxGeometry x="189" width="21" height="14" as="geometry">
            <mxRectangle width="21" height="14" as="alternateBounds" />
          </mxGeometry>
        </mxCell>
        <mxCell id="AYSb7tiYscdiB1DCTlH--228" value="" style="shape=tableRow;horizontal=0;startSize=0;swimlaneHead=0;swimlaneBody=0;strokeColor=inherit;top=0;left=0;bottom=0;right=0;collapsible=0;dropTarget=0;fillColor=none;points=[[0,0.5],[1,0.5]];portConstraint=eastwest;" parent="AYSb7tiYscdiB1DCTlH--150" vertex="1">
          <mxGeometry y="103" width="210" height="15" as="geometry" />
        </mxCell>
        <mxCell id="AYSb7tiYscdiB1DCTlH--229" value="" style="shape=partialRectangle;html=1;whiteSpace=wrap;connectable=0;strokeColor=inherit;overflow=hidden;fillColor=none;top=0;left=0;bottom=0;right=0;pointerEvents=1;" parent="AYSb7tiYscdiB1DCTlH--228" vertex="1">
          <mxGeometry width="21" height="15" as="geometry">
            <mxRectangle width="21" height="15" as="alternateBounds" />
          </mxGeometry>
        </mxCell>
        <mxCell id="AYSb7tiYscdiB1DCTlH--230" value="" style="shape=partialRectangle;html=1;whiteSpace=wrap;connectable=0;strokeColor=inherit;overflow=hidden;fillColor=none;top=0;left=0;bottom=0;right=0;pointerEvents=1;" parent="AYSb7tiYscdiB1DCTlH--228" vertex="1">
          <mxGeometry x="21" width="21" height="15" as="geometry">
            <mxRectangle width="21" height="15" as="alternateBounds" />
          </mxGeometry>
        </mxCell>
        <mxCell id="AYSb7tiYscdiB1DCTlH--231" value="" style="shape=partialRectangle;html=1;whiteSpace=wrap;connectable=0;strokeColor=inherit;overflow=hidden;fillColor=none;top=0;left=0;bottom=0;right=0;pointerEvents=1;" parent="AYSb7tiYscdiB1DCTlH--228" vertex="1">
          <mxGeometry x="42" width="21" height="15" as="geometry">
            <mxRectangle width="21" height="15" as="alternateBounds" />
          </mxGeometry>
        </mxCell>
        <mxCell id="AYSb7tiYscdiB1DCTlH--232" value="" style="shape=partialRectangle;html=1;whiteSpace=wrap;connectable=0;strokeColor=inherit;overflow=hidden;fillColor=none;top=0;left=0;bottom=0;right=0;pointerEvents=1;" parent="AYSb7tiYscdiB1DCTlH--228" vertex="1">
          <mxGeometry x="63" width="21" height="15" as="geometry">
            <mxRectangle width="21" height="15" as="alternateBounds" />
          </mxGeometry>
        </mxCell>
        <mxCell id="AYSb7tiYscdiB1DCTlH--233" value="" style="shape=partialRectangle;html=1;whiteSpace=wrap;connectable=0;strokeColor=inherit;overflow=hidden;fillColor=none;top=0;left=0;bottom=0;right=0;pointerEvents=1;" parent="AYSb7tiYscdiB1DCTlH--228" vertex="1">
          <mxGeometry x="84" width="20" height="15" as="geometry">
            <mxRectangle width="20" height="15" as="alternateBounds" />
          </mxGeometry>
        </mxCell>
        <mxCell id="AYSb7tiYscdiB1DCTlH--234" value="" style="shape=partialRectangle;html=1;whiteSpace=wrap;connectable=0;strokeColor=inherit;overflow=hidden;fillColor=none;top=0;left=0;bottom=0;right=0;pointerEvents=1;" parent="AYSb7tiYscdiB1DCTlH--228" vertex="1">
          <mxGeometry x="104" width="22" height="15" as="geometry">
            <mxRectangle width="22" height="15" as="alternateBounds" />
          </mxGeometry>
        </mxCell>
        <mxCell id="AYSb7tiYscdiB1DCTlH--235" value="" style="shape=partialRectangle;html=1;whiteSpace=wrap;connectable=0;strokeColor=inherit;overflow=hidden;fillColor=none;top=0;left=0;bottom=0;right=0;pointerEvents=1;" parent="AYSb7tiYscdiB1DCTlH--228" vertex="1">
          <mxGeometry x="126" width="21" height="15" as="geometry">
            <mxRectangle width="21" height="15" as="alternateBounds" />
          </mxGeometry>
        </mxCell>
        <mxCell id="AYSb7tiYscdiB1DCTlH--236" value="" style="shape=partialRectangle;html=1;whiteSpace=wrap;connectable=0;strokeColor=inherit;overflow=hidden;fillColor=none;top=0;left=0;bottom=0;right=0;pointerEvents=1;" parent="AYSb7tiYscdiB1DCTlH--228" vertex="1">
          <mxGeometry x="147" width="21" height="15" as="geometry">
            <mxRectangle width="21" height="15" as="alternateBounds" />
          </mxGeometry>
        </mxCell>
        <mxCell id="AYSb7tiYscdiB1DCTlH--237" value="" style="shape=partialRectangle;html=1;whiteSpace=wrap;connectable=0;strokeColor=inherit;overflow=hidden;fillColor=none;top=0;left=0;bottom=0;right=0;pointerEvents=1;" parent="AYSb7tiYscdiB1DCTlH--228" vertex="1">
          <mxGeometry x="168" width="21" height="15" as="geometry">
            <mxRectangle width="21" height="15" as="alternateBounds" />
          </mxGeometry>
        </mxCell>
        <mxCell id="AYSb7tiYscdiB1DCTlH--238" value="" style="shape=partialRectangle;html=1;whiteSpace=wrap;connectable=0;strokeColor=inherit;overflow=hidden;fillColor=none;top=0;left=0;bottom=0;right=0;pointerEvents=1;" parent="AYSb7tiYscdiB1DCTlH--228" vertex="1">
          <mxGeometry x="189" width="21" height="15" as="geometry">
            <mxRectangle width="21" height="15" as="alternateBounds" />
          </mxGeometry>
        </mxCell>
        <mxCell id="AYSb7tiYscdiB1DCTlH--239" value="" style="shape=tableRow;horizontal=0;startSize=0;swimlaneHead=0;swimlaneBody=0;strokeColor=inherit;top=0;left=0;bottom=0;right=0;collapsible=0;dropTarget=0;fillColor=none;points=[[0,0.5],[1,0.5]];portConstraint=eastwest;" parent="AYSb7tiYscdiB1DCTlH--150" vertex="1">
          <mxGeometry y="118" width="210" height="15" as="geometry" />
        </mxCell>
        <mxCell id="AYSb7tiYscdiB1DCTlH--240" value="" style="shape=partialRectangle;html=1;whiteSpace=wrap;connectable=0;strokeColor=inherit;overflow=hidden;fillColor=none;top=0;left=0;bottom=0;right=0;pointerEvents=1;" parent="AYSb7tiYscdiB1DCTlH--239" vertex="1">
          <mxGeometry width="21" height="15" as="geometry">
            <mxRectangle width="21" height="15" as="alternateBounds" />
          </mxGeometry>
        </mxCell>
        <mxCell id="AYSb7tiYscdiB1DCTlH--241" value="" style="shape=partialRectangle;html=1;whiteSpace=wrap;connectable=0;strokeColor=inherit;overflow=hidden;fillColor=none;top=0;left=0;bottom=0;right=0;pointerEvents=1;" parent="AYSb7tiYscdiB1DCTlH--239" vertex="1">
          <mxGeometry x="21" width="21" height="15" as="geometry">
            <mxRectangle width="21" height="15" as="alternateBounds" />
          </mxGeometry>
        </mxCell>
        <mxCell id="AYSb7tiYscdiB1DCTlH--242" value="" style="shape=partialRectangle;html=1;whiteSpace=wrap;connectable=0;strokeColor=inherit;overflow=hidden;fillColor=none;top=0;left=0;bottom=0;right=0;pointerEvents=1;" parent="AYSb7tiYscdiB1DCTlH--239" vertex="1">
          <mxGeometry x="42" width="21" height="15" as="geometry">
            <mxRectangle width="21" height="15" as="alternateBounds" />
          </mxGeometry>
        </mxCell>
        <mxCell id="AYSb7tiYscdiB1DCTlH--243" value="" style="shape=partialRectangle;html=1;whiteSpace=wrap;connectable=0;strokeColor=inherit;overflow=hidden;fillColor=none;top=0;left=0;bottom=0;right=0;pointerEvents=1;" parent="AYSb7tiYscdiB1DCTlH--239" vertex="1">
          <mxGeometry x="63" width="21" height="15" as="geometry">
            <mxRectangle width="21" height="15" as="alternateBounds" />
          </mxGeometry>
        </mxCell>
        <mxCell id="AYSb7tiYscdiB1DCTlH--244" value="" style="shape=partialRectangle;html=1;whiteSpace=wrap;connectable=0;strokeColor=inherit;overflow=hidden;fillColor=none;top=0;left=0;bottom=0;right=0;pointerEvents=1;" parent="AYSb7tiYscdiB1DCTlH--239" vertex="1">
          <mxGeometry x="84" width="20" height="15" as="geometry">
            <mxRectangle width="20" height="15" as="alternateBounds" />
          </mxGeometry>
        </mxCell>
        <mxCell id="AYSb7tiYscdiB1DCTlH--245" value="" style="shape=partialRectangle;html=1;whiteSpace=wrap;connectable=0;strokeColor=inherit;overflow=hidden;fillColor=none;top=0;left=0;bottom=0;right=0;pointerEvents=1;" parent="AYSb7tiYscdiB1DCTlH--239" vertex="1">
          <mxGeometry x="104" width="22" height="15" as="geometry">
            <mxRectangle width="22" height="15" as="alternateBounds" />
          </mxGeometry>
        </mxCell>
        <mxCell id="AYSb7tiYscdiB1DCTlH--246" value="" style="shape=partialRectangle;html=1;whiteSpace=wrap;connectable=0;strokeColor=inherit;overflow=hidden;fillColor=none;top=0;left=0;bottom=0;right=0;pointerEvents=1;" parent="AYSb7tiYscdiB1DCTlH--239" vertex="1">
          <mxGeometry x="126" width="21" height="15" as="geometry">
            <mxRectangle width="21" height="15" as="alternateBounds" />
          </mxGeometry>
        </mxCell>
        <mxCell id="AYSb7tiYscdiB1DCTlH--247" value="" style="shape=partialRectangle;html=1;whiteSpace=wrap;connectable=0;strokeColor=inherit;overflow=hidden;fillColor=none;top=0;left=0;bottom=0;right=0;pointerEvents=1;" parent="AYSb7tiYscdiB1DCTlH--239" vertex="1">
          <mxGeometry x="147" width="21" height="15" as="geometry">
            <mxRectangle width="21" height="15" as="alternateBounds" />
          </mxGeometry>
        </mxCell>
        <mxCell id="AYSb7tiYscdiB1DCTlH--248" value="" style="shape=partialRectangle;html=1;whiteSpace=wrap;connectable=0;strokeColor=inherit;overflow=hidden;fillColor=none;top=0;left=0;bottom=0;right=0;pointerEvents=1;" parent="AYSb7tiYscdiB1DCTlH--239" vertex="1">
          <mxGeometry x="168" width="21" height="15" as="geometry">
            <mxRectangle width="21" height="15" as="alternateBounds" />
          </mxGeometry>
        </mxCell>
        <mxCell id="AYSb7tiYscdiB1DCTlH--249" value="" style="shape=partialRectangle;html=1;whiteSpace=wrap;connectable=0;strokeColor=inherit;overflow=hidden;fillColor=none;top=0;left=0;bottom=0;right=0;pointerEvents=1;" parent="AYSb7tiYscdiB1DCTlH--239" vertex="1">
          <mxGeometry x="189" width="21" height="15" as="geometry">
            <mxRectangle width="21" height="15" as="alternateBounds" />
          </mxGeometry>
        </mxCell>
        <mxCell id="AYSb7tiYscdiB1DCTlH--250" value="" style="shape=tableRow;horizontal=0;startSize=0;swimlaneHead=0;swimlaneBody=0;strokeColor=inherit;top=0;left=0;bottom=0;right=0;collapsible=0;dropTarget=0;fillColor=none;points=[[0,0.5],[1,0.5]];portConstraint=eastwest;" parent="AYSb7tiYscdiB1DCTlH--150" vertex="1">
          <mxGeometry y="133" width="210" height="15" as="geometry" />
        </mxCell>
        <mxCell id="AYSb7tiYscdiB1DCTlH--251" value="" style="shape=partialRectangle;html=1;whiteSpace=wrap;connectable=0;strokeColor=inherit;overflow=hidden;fillColor=none;top=0;left=0;bottom=0;right=0;pointerEvents=1;" parent="AYSb7tiYscdiB1DCTlH--250" vertex="1">
          <mxGeometry width="21" height="15" as="geometry">
            <mxRectangle width="21" height="15" as="alternateBounds" />
          </mxGeometry>
        </mxCell>
        <mxCell id="AYSb7tiYscdiB1DCTlH--252" value="" style="shape=partialRectangle;html=1;whiteSpace=wrap;connectable=0;strokeColor=inherit;overflow=hidden;fillColor=none;top=0;left=0;bottom=0;right=0;pointerEvents=1;" parent="AYSb7tiYscdiB1DCTlH--250" vertex="1">
          <mxGeometry x="21" width="21" height="15" as="geometry">
            <mxRectangle width="21" height="15" as="alternateBounds" />
          </mxGeometry>
        </mxCell>
        <mxCell id="AYSb7tiYscdiB1DCTlH--253" value="" style="shape=partialRectangle;html=1;whiteSpace=wrap;connectable=0;strokeColor=inherit;overflow=hidden;fillColor=none;top=0;left=0;bottom=0;right=0;pointerEvents=1;" parent="AYSb7tiYscdiB1DCTlH--250" vertex="1">
          <mxGeometry x="42" width="21" height="15" as="geometry">
            <mxRectangle width="21" height="15" as="alternateBounds" />
          </mxGeometry>
        </mxCell>
        <mxCell id="AYSb7tiYscdiB1DCTlH--254" value="" style="shape=partialRectangle;html=1;whiteSpace=wrap;connectable=0;strokeColor=inherit;overflow=hidden;fillColor=none;top=0;left=0;bottom=0;right=0;pointerEvents=1;" parent="AYSb7tiYscdiB1DCTlH--250" vertex="1">
          <mxGeometry x="63" width="21" height="15" as="geometry">
            <mxRectangle width="21" height="15" as="alternateBounds" />
          </mxGeometry>
        </mxCell>
        <mxCell id="AYSb7tiYscdiB1DCTlH--255" value="" style="shape=partialRectangle;html=1;whiteSpace=wrap;connectable=0;strokeColor=inherit;overflow=hidden;fillColor=none;top=0;left=0;bottom=0;right=0;pointerEvents=1;" parent="AYSb7tiYscdiB1DCTlH--250" vertex="1">
          <mxGeometry x="84" width="20" height="15" as="geometry">
            <mxRectangle width="20" height="15" as="alternateBounds" />
          </mxGeometry>
        </mxCell>
        <mxCell id="AYSb7tiYscdiB1DCTlH--256" value="" style="shape=partialRectangle;html=1;whiteSpace=wrap;connectable=0;strokeColor=inherit;overflow=hidden;fillColor=none;top=0;left=0;bottom=0;right=0;pointerEvents=1;" parent="AYSb7tiYscdiB1DCTlH--250" vertex="1">
          <mxGeometry x="104" width="22" height="15" as="geometry">
            <mxRectangle width="22" height="15" as="alternateBounds" />
          </mxGeometry>
        </mxCell>
        <mxCell id="AYSb7tiYscdiB1DCTlH--257" value="" style="shape=partialRectangle;html=1;whiteSpace=wrap;connectable=0;strokeColor=inherit;overflow=hidden;fillColor=none;top=0;left=0;bottom=0;right=0;pointerEvents=1;" parent="AYSb7tiYscdiB1DCTlH--250" vertex="1">
          <mxGeometry x="126" width="21" height="15" as="geometry">
            <mxRectangle width="21" height="15" as="alternateBounds" />
          </mxGeometry>
        </mxCell>
        <mxCell id="AYSb7tiYscdiB1DCTlH--258" value="" style="shape=partialRectangle;html=1;whiteSpace=wrap;connectable=0;strokeColor=inherit;overflow=hidden;fillColor=none;top=0;left=0;bottom=0;right=0;pointerEvents=1;" parent="AYSb7tiYscdiB1DCTlH--250" vertex="1">
          <mxGeometry x="147" width="21" height="15" as="geometry">
            <mxRectangle width="21" height="15" as="alternateBounds" />
          </mxGeometry>
        </mxCell>
        <mxCell id="AYSb7tiYscdiB1DCTlH--259" value="" style="shape=partialRectangle;html=1;whiteSpace=wrap;connectable=0;strokeColor=inherit;overflow=hidden;fillColor=none;top=0;left=0;bottom=0;right=0;pointerEvents=1;" parent="AYSb7tiYscdiB1DCTlH--250" vertex="1">
          <mxGeometry x="168" width="21" height="15" as="geometry">
            <mxRectangle width="21" height="15" as="alternateBounds" />
          </mxGeometry>
        </mxCell>
        <mxCell id="AYSb7tiYscdiB1DCTlH--260" value="" style="shape=partialRectangle;html=1;whiteSpace=wrap;connectable=0;strokeColor=inherit;overflow=hidden;fillColor=none;top=0;left=0;bottom=0;right=0;pointerEvents=1;" parent="AYSb7tiYscdiB1DCTlH--250" vertex="1">
          <mxGeometry x="189" width="21" height="15" as="geometry">
            <mxRectangle width="21" height="15" as="alternateBounds" />
          </mxGeometry>
        </mxCell>
        <mxCell id="AYSb7tiYscdiB1DCTlH--261" value="" style="shape=table;startSize=0;container=1;collapsible=0;childLayout=tableLayout;" parent="1" vertex="1">
          <mxGeometry x="375" y="273" width="210" height="144.9" as="geometry" />
        </mxCell>
        <mxCell id="AYSb7tiYscdiB1DCTlH--262" value="" style="shape=tableRow;horizontal=0;startSize=0;swimlaneHead=0;swimlaneBody=0;strokeColor=inherit;top=0;left=0;bottom=0;right=0;collapsible=0;dropTarget=0;fillColor=none;points=[[0,0.5],[1,0.5]];portConstraint=eastwest;" parent="AYSb7tiYscdiB1DCTlH--261" vertex="1">
          <mxGeometry width="210" height="29" as="geometry" />
        </mxCell>
        <mxCell id="AYSb7tiYscdiB1DCTlH--263" value="" style="shape=partialRectangle;html=1;whiteSpace=wrap;connectable=0;strokeColor=inherit;overflow=hidden;fillColor=none;top=0;left=0;bottom=0;right=0;pointerEvents=1;" parent="AYSb7tiYscdiB1DCTlH--262" vertex="1">
          <mxGeometry width="42" height="29" as="geometry">
            <mxRectangle width="42" height="29" as="alternateBounds" />
          </mxGeometry>
        </mxCell>
        <mxCell id="AYSb7tiYscdiB1DCTlH--264" value="" style="shape=partialRectangle;html=1;whiteSpace=wrap;connectable=0;strokeColor=inherit;overflow=hidden;fillColor=none;top=0;left=0;bottom=0;right=0;pointerEvents=1;" parent="AYSb7tiYscdiB1DCTlH--262" vertex="1">
          <mxGeometry x="42" width="42" height="29" as="geometry">
            <mxRectangle width="42" height="29" as="alternateBounds" />
          </mxGeometry>
        </mxCell>
        <mxCell id="AYSb7tiYscdiB1DCTlH--265" value="" style="shape=partialRectangle;html=1;whiteSpace=wrap;connectable=0;strokeColor=inherit;overflow=hidden;fillColor=none;top=0;left=0;bottom=0;right=0;pointerEvents=1;" parent="AYSb7tiYscdiB1DCTlH--262" vertex="1">
          <mxGeometry x="84" width="42" height="29" as="geometry">
            <mxRectangle width="42" height="29" as="alternateBounds" />
          </mxGeometry>
        </mxCell>
        <mxCell id="AYSb7tiYscdiB1DCTlH--266" value="" style="shape=partialRectangle;html=1;whiteSpace=wrap;connectable=0;strokeColor=inherit;overflow=hidden;fillColor=none;top=0;left=0;bottom=0;right=0;pointerEvents=1;" parent="AYSb7tiYscdiB1DCTlH--262" vertex="1">
          <mxGeometry x="126" width="42" height="29" as="geometry">
            <mxRectangle width="42" height="29" as="alternateBounds" />
          </mxGeometry>
        </mxCell>
        <mxCell id="AYSb7tiYscdiB1DCTlH--267" value="" style="shape=partialRectangle;html=1;whiteSpace=wrap;connectable=0;strokeColor=inherit;overflow=hidden;fillColor=none;top=0;left=0;bottom=0;right=0;pointerEvents=1;" parent="AYSb7tiYscdiB1DCTlH--262" vertex="1">
          <mxGeometry x="168" width="42" height="29" as="geometry">
            <mxRectangle width="42" height="29" as="alternateBounds" />
          </mxGeometry>
        </mxCell>
        <mxCell id="AYSb7tiYscdiB1DCTlH--268" value="" style="shape=tableRow;horizontal=0;startSize=0;swimlaneHead=0;swimlaneBody=0;strokeColor=inherit;top=0;left=0;bottom=0;right=0;collapsible=0;dropTarget=0;fillColor=none;points=[[0,0.5],[1,0.5]];portConstraint=eastwest;" parent="AYSb7tiYscdiB1DCTlH--261" vertex="1">
          <mxGeometry y="29" width="210" height="29" as="geometry" />
        </mxCell>
        <mxCell id="AYSb7tiYscdiB1DCTlH--269" value="" style="shape=partialRectangle;html=1;whiteSpace=wrap;connectable=0;strokeColor=inherit;overflow=hidden;fillColor=none;top=0;left=0;bottom=0;right=0;pointerEvents=1;" parent="AYSb7tiYscdiB1DCTlH--268" vertex="1">
          <mxGeometry width="42" height="29" as="geometry">
            <mxRectangle width="42" height="29" as="alternateBounds" />
          </mxGeometry>
        </mxCell>
        <mxCell id="AYSb7tiYscdiB1DCTlH--270" value="" style="shape=partialRectangle;html=1;whiteSpace=wrap;connectable=0;strokeColor=inherit;overflow=hidden;fillColor=none;top=0;left=0;bottom=0;right=0;pointerEvents=1;" parent="AYSb7tiYscdiB1DCTlH--268" vertex="1">
          <mxGeometry x="42" width="42" height="29" as="geometry">
            <mxRectangle width="42" height="29" as="alternateBounds" />
          </mxGeometry>
        </mxCell>
        <mxCell id="AYSb7tiYscdiB1DCTlH--271" value="" style="shape=partialRectangle;html=1;whiteSpace=wrap;connectable=0;strokeColor=inherit;overflow=hidden;fillColor=none;top=0;left=0;bottom=0;right=0;pointerEvents=1;" parent="AYSb7tiYscdiB1DCTlH--268" vertex="1">
          <mxGeometry x="84" width="42" height="29" as="geometry">
            <mxRectangle width="42" height="29" as="alternateBounds" />
          </mxGeometry>
        </mxCell>
        <mxCell id="AYSb7tiYscdiB1DCTlH--272" value="" style="shape=partialRectangle;html=1;whiteSpace=wrap;connectable=0;strokeColor=inherit;overflow=hidden;fillColor=none;top=0;left=0;bottom=0;right=0;pointerEvents=1;" parent="AYSb7tiYscdiB1DCTlH--268" vertex="1">
          <mxGeometry x="126" width="42" height="29" as="geometry">
            <mxRectangle width="42" height="29" as="alternateBounds" />
          </mxGeometry>
        </mxCell>
        <mxCell id="AYSb7tiYscdiB1DCTlH--273" value="" style="shape=partialRectangle;html=1;whiteSpace=wrap;connectable=0;strokeColor=inherit;overflow=hidden;fillColor=none;top=0;left=0;bottom=0;right=0;pointerEvents=1;" parent="AYSb7tiYscdiB1DCTlH--268" vertex="1">
          <mxGeometry x="168" width="42" height="29" as="geometry">
            <mxRectangle width="42" height="29" as="alternateBounds" />
          </mxGeometry>
        </mxCell>
        <mxCell id="AYSb7tiYscdiB1DCTlH--274" value="" style="shape=tableRow;horizontal=0;startSize=0;swimlaneHead=0;swimlaneBody=0;strokeColor=inherit;top=0;left=0;bottom=0;right=0;collapsible=0;dropTarget=0;fillColor=none;points=[[0,0.5],[1,0.5]];portConstraint=eastwest;" parent="AYSb7tiYscdiB1DCTlH--261" vertex="1">
          <mxGeometry y="58" width="210" height="29" as="geometry" />
        </mxCell>
        <mxCell id="AYSb7tiYscdiB1DCTlH--275" value="" style="shape=partialRectangle;html=1;whiteSpace=wrap;connectable=0;strokeColor=inherit;overflow=hidden;fillColor=none;top=0;left=0;bottom=0;right=0;pointerEvents=1;" parent="AYSb7tiYscdiB1DCTlH--274" vertex="1">
          <mxGeometry width="42" height="29" as="geometry">
            <mxRectangle width="42" height="29" as="alternateBounds" />
          </mxGeometry>
        </mxCell>
        <mxCell id="AYSb7tiYscdiB1DCTlH--276" value="" style="shape=partialRectangle;html=1;whiteSpace=wrap;connectable=0;strokeColor=inherit;overflow=hidden;fillColor=none;top=0;left=0;bottom=0;right=0;pointerEvents=1;" parent="AYSb7tiYscdiB1DCTlH--274" vertex="1">
          <mxGeometry x="42" width="42" height="29" as="geometry">
            <mxRectangle width="42" height="29" as="alternateBounds" />
          </mxGeometry>
        </mxCell>
        <mxCell id="AYSb7tiYscdiB1DCTlH--277" value="" style="shape=partialRectangle;html=1;whiteSpace=wrap;connectable=0;strokeColor=inherit;overflow=hidden;fillColor=none;top=0;left=0;bottom=0;right=0;pointerEvents=1;" parent="AYSb7tiYscdiB1DCTlH--274" vertex="1">
          <mxGeometry x="84" width="42" height="29" as="geometry">
            <mxRectangle width="42" height="29" as="alternateBounds" />
          </mxGeometry>
        </mxCell>
        <mxCell id="AYSb7tiYscdiB1DCTlH--278" value="" style="shape=partialRectangle;html=1;whiteSpace=wrap;connectable=0;strokeColor=inherit;overflow=hidden;fillColor=none;top=0;left=0;bottom=0;right=0;pointerEvents=1;" parent="AYSb7tiYscdiB1DCTlH--274" vertex="1">
          <mxGeometry x="126" width="42" height="29" as="geometry">
            <mxRectangle width="42" height="29" as="alternateBounds" />
          </mxGeometry>
        </mxCell>
        <mxCell id="AYSb7tiYscdiB1DCTlH--279" value="" style="shape=partialRectangle;html=1;whiteSpace=wrap;connectable=0;strokeColor=inherit;overflow=hidden;fillColor=none;top=0;left=0;bottom=0;right=0;pointerEvents=1;" parent="AYSb7tiYscdiB1DCTlH--274" vertex="1">
          <mxGeometry x="168" width="42" height="29" as="geometry">
            <mxRectangle width="42" height="29" as="alternateBounds" />
          </mxGeometry>
        </mxCell>
        <mxCell id="AYSb7tiYscdiB1DCTlH--280" value="" style="shape=tableRow;horizontal=0;startSize=0;swimlaneHead=0;swimlaneBody=0;strokeColor=inherit;top=0;left=0;bottom=0;right=0;collapsible=0;dropTarget=0;fillColor=none;points=[[0,0.5],[1,0.5]];portConstraint=eastwest;" parent="AYSb7tiYscdiB1DCTlH--261" vertex="1">
          <mxGeometry y="87" width="210" height="29" as="geometry" />
        </mxCell>
        <mxCell id="AYSb7tiYscdiB1DCTlH--281" value="" style="shape=partialRectangle;html=1;whiteSpace=wrap;connectable=0;strokeColor=inherit;overflow=hidden;fillColor=none;top=0;left=0;bottom=0;right=0;pointerEvents=1;" parent="AYSb7tiYscdiB1DCTlH--280" vertex="1">
          <mxGeometry width="42" height="29" as="geometry">
            <mxRectangle width="42" height="29" as="alternateBounds" />
          </mxGeometry>
        </mxCell>
        <mxCell id="AYSb7tiYscdiB1DCTlH--282" value="" style="shape=partialRectangle;html=1;whiteSpace=wrap;connectable=0;strokeColor=inherit;overflow=hidden;fillColor=none;top=0;left=0;bottom=0;right=0;pointerEvents=1;" parent="AYSb7tiYscdiB1DCTlH--280" vertex="1">
          <mxGeometry x="42" width="42" height="29" as="geometry">
            <mxRectangle width="42" height="29" as="alternateBounds" />
          </mxGeometry>
        </mxCell>
        <mxCell id="AYSb7tiYscdiB1DCTlH--283" value="" style="shape=partialRectangle;html=1;whiteSpace=wrap;connectable=0;strokeColor=inherit;overflow=hidden;fillColor=none;top=0;left=0;bottom=0;right=0;pointerEvents=1;" parent="AYSb7tiYscdiB1DCTlH--280" vertex="1">
          <mxGeometry x="84" width="42" height="29" as="geometry">
            <mxRectangle width="42" height="29" as="alternateBounds" />
          </mxGeometry>
        </mxCell>
        <mxCell id="AYSb7tiYscdiB1DCTlH--284" value="" style="shape=partialRectangle;html=1;whiteSpace=wrap;connectable=0;strokeColor=inherit;overflow=hidden;fillColor=none;top=0;left=0;bottom=0;right=0;pointerEvents=1;" parent="AYSb7tiYscdiB1DCTlH--280" vertex="1">
          <mxGeometry x="126" width="42" height="29" as="geometry">
            <mxRectangle width="42" height="29" as="alternateBounds" />
          </mxGeometry>
        </mxCell>
        <mxCell id="AYSb7tiYscdiB1DCTlH--285" value="" style="shape=partialRectangle;html=1;whiteSpace=wrap;connectable=0;strokeColor=inherit;overflow=hidden;fillColor=none;top=0;left=0;bottom=0;right=0;pointerEvents=1;" parent="AYSb7tiYscdiB1DCTlH--280" vertex="1">
          <mxGeometry x="168" width="42" height="29" as="geometry">
            <mxRectangle width="42" height="29" as="alternateBounds" />
          </mxGeometry>
        </mxCell>
        <mxCell id="AYSb7tiYscdiB1DCTlH--286" value="" style="shape=tableRow;horizontal=0;startSize=0;swimlaneHead=0;swimlaneBody=0;strokeColor=inherit;top=0;left=0;bottom=0;right=0;collapsible=0;dropTarget=0;fillColor=none;points=[[0,0.5],[1,0.5]];portConstraint=eastwest;" parent="AYSb7tiYscdiB1DCTlH--261" vertex="1">
          <mxGeometry y="116" width="210" height="29" as="geometry" />
        </mxCell>
        <mxCell id="AYSb7tiYscdiB1DCTlH--287" value="" style="shape=partialRectangle;html=1;whiteSpace=wrap;connectable=0;strokeColor=inherit;overflow=hidden;fillColor=none;top=0;left=0;bottom=0;right=0;pointerEvents=1;" parent="AYSb7tiYscdiB1DCTlH--286" vertex="1">
          <mxGeometry width="42" height="29" as="geometry">
            <mxRectangle width="42" height="29" as="alternateBounds" />
          </mxGeometry>
        </mxCell>
        <mxCell id="AYSb7tiYscdiB1DCTlH--288" value="" style="shape=partialRectangle;html=1;whiteSpace=wrap;connectable=0;strokeColor=inherit;overflow=hidden;fillColor=none;top=0;left=0;bottom=0;right=0;pointerEvents=1;" parent="AYSb7tiYscdiB1DCTlH--286" vertex="1">
          <mxGeometry x="42" width="42" height="29" as="geometry">
            <mxRectangle width="42" height="29" as="alternateBounds" />
          </mxGeometry>
        </mxCell>
        <mxCell id="AYSb7tiYscdiB1DCTlH--289" value="" style="shape=partialRectangle;html=1;whiteSpace=wrap;connectable=0;strokeColor=inherit;overflow=hidden;fillColor=none;top=0;left=0;bottom=0;right=0;pointerEvents=1;" parent="AYSb7tiYscdiB1DCTlH--286" vertex="1">
          <mxGeometry x="84" width="42" height="29" as="geometry">
            <mxRectangle width="42" height="29" as="alternateBounds" />
          </mxGeometry>
        </mxCell>
        <mxCell id="AYSb7tiYscdiB1DCTlH--290" value="" style="shape=partialRectangle;html=1;whiteSpace=wrap;connectable=0;strokeColor=inherit;overflow=hidden;fillColor=none;top=0;left=0;bottom=0;right=0;pointerEvents=1;" parent="AYSb7tiYscdiB1DCTlH--286" vertex="1">
          <mxGeometry x="126" width="42" height="29" as="geometry">
            <mxRectangle width="42" height="29" as="alternateBounds" />
          </mxGeometry>
        </mxCell>
        <mxCell id="AYSb7tiYscdiB1DCTlH--291" value="" style="shape=partialRectangle;html=1;whiteSpace=wrap;connectable=0;strokeColor=inherit;overflow=hidden;fillColor=none;top=0;left=0;bottom=0;right=0;pointerEvents=1;" parent="AYSb7tiYscdiB1DCTlH--286" vertex="1">
          <mxGeometry x="168" width="42" height="29" as="geometry">
            <mxRectangle width="42" height="29" as="alternateBounds" />
          </mxGeometry>
        </mxCell>
        <mxCell id="AYSb7tiYscdiB1DCTlH--535" value="" style="shape=table;startSize=0;container=1;collapsible=0;childLayout=tableLayout;" parent="1" vertex="1">
          <mxGeometry x="631" y="273" width="210" height="144.9" as="geometry" />
        </mxCell>
        <mxCell id="AYSb7tiYscdiB1DCTlH--536" value="" style="shape=tableRow;horizontal=0;startSize=0;swimlaneHead=0;swimlaneBody=0;strokeColor=inherit;top=0;left=0;bottom=0;right=0;collapsible=0;dropTarget=0;fillColor=none;points=[[0,0.5],[1,0.5]];portConstraint=eastwest;" parent="AYSb7tiYscdiB1DCTlH--535" vertex="1">
          <mxGeometry width="210" height="29" as="geometry" />
        </mxCell>
        <mxCell id="AYSb7tiYscdiB1DCTlH--537" value="" style="shape=partialRectangle;html=1;whiteSpace=wrap;connectable=0;strokeColor=inherit;overflow=hidden;fillColor=none;top=0;left=0;bottom=0;right=0;pointerEvents=1;" parent="AYSb7tiYscdiB1DCTlH--536" vertex="1">
          <mxGeometry width="42" height="29" as="geometry">
            <mxRectangle width="42" height="29" as="alternateBounds" />
          </mxGeometry>
        </mxCell>
        <mxCell id="AYSb7tiYscdiB1DCTlH--538" value="" style="shape=partialRectangle;html=1;whiteSpace=wrap;connectable=0;strokeColor=inherit;overflow=hidden;fillColor=none;top=0;left=0;bottom=0;right=0;pointerEvents=1;" parent="AYSb7tiYscdiB1DCTlH--536" vertex="1">
          <mxGeometry x="42" width="42" height="29" as="geometry">
            <mxRectangle width="42" height="29" as="alternateBounds" />
          </mxGeometry>
        </mxCell>
        <mxCell id="AYSb7tiYscdiB1DCTlH--539" value="" style="shape=partialRectangle;html=1;whiteSpace=wrap;connectable=0;strokeColor=inherit;overflow=hidden;fillColor=none;top=0;left=0;bottom=0;right=0;pointerEvents=1;" parent="AYSb7tiYscdiB1DCTlH--536" vertex="1">
          <mxGeometry x="84" width="42" height="29" as="geometry">
            <mxRectangle width="42" height="29" as="alternateBounds" />
          </mxGeometry>
        </mxCell>
        <mxCell id="AYSb7tiYscdiB1DCTlH--540" value="" style="shape=partialRectangle;html=1;whiteSpace=wrap;connectable=0;strokeColor=inherit;overflow=hidden;fillColor=none;top=0;left=0;bottom=0;right=0;pointerEvents=1;" parent="AYSb7tiYscdiB1DCTlH--536" vertex="1">
          <mxGeometry x="126" width="42" height="29" as="geometry">
            <mxRectangle width="42" height="29" as="alternateBounds" />
          </mxGeometry>
        </mxCell>
        <mxCell id="AYSb7tiYscdiB1DCTlH--541" value="" style="shape=partialRectangle;html=1;whiteSpace=wrap;connectable=0;strokeColor=inherit;overflow=hidden;fillColor=none;top=0;left=0;bottom=0;right=0;pointerEvents=1;" parent="AYSb7tiYscdiB1DCTlH--536" vertex="1">
          <mxGeometry x="168" width="42" height="29" as="geometry">
            <mxRectangle width="42" height="29" as="alternateBounds" />
          </mxGeometry>
        </mxCell>
        <mxCell id="AYSb7tiYscdiB1DCTlH--542" value="" style="shape=tableRow;horizontal=0;startSize=0;swimlaneHead=0;swimlaneBody=0;strokeColor=inherit;top=0;left=0;bottom=0;right=0;collapsible=0;dropTarget=0;fillColor=none;points=[[0,0.5],[1,0.5]];portConstraint=eastwest;" parent="AYSb7tiYscdiB1DCTlH--535" vertex="1">
          <mxGeometry y="29" width="210" height="29" as="geometry" />
        </mxCell>
        <mxCell id="AYSb7tiYscdiB1DCTlH--543" value="" style="shape=partialRectangle;html=1;whiteSpace=wrap;connectable=0;strokeColor=inherit;overflow=hidden;fillColor=none;top=0;left=0;bottom=0;right=0;pointerEvents=1;" parent="AYSb7tiYscdiB1DCTlH--542" vertex="1">
          <mxGeometry width="42" height="29" as="geometry">
            <mxRectangle width="42" height="29" as="alternateBounds" />
          </mxGeometry>
        </mxCell>
        <mxCell id="AYSb7tiYscdiB1DCTlH--544" value="" style="shape=partialRectangle;html=1;whiteSpace=wrap;connectable=0;strokeColor=inherit;overflow=hidden;fillColor=none;top=0;left=0;bottom=0;right=0;pointerEvents=1;" parent="AYSb7tiYscdiB1DCTlH--542" vertex="1">
          <mxGeometry x="42" width="42" height="29" as="geometry">
            <mxRectangle width="42" height="29" as="alternateBounds" />
          </mxGeometry>
        </mxCell>
        <mxCell id="AYSb7tiYscdiB1DCTlH--545" value="" style="shape=partialRectangle;html=1;whiteSpace=wrap;connectable=0;strokeColor=inherit;overflow=hidden;fillColor=none;top=0;left=0;bottom=0;right=0;pointerEvents=1;" parent="AYSb7tiYscdiB1DCTlH--542" vertex="1">
          <mxGeometry x="84" width="42" height="29" as="geometry">
            <mxRectangle width="42" height="29" as="alternateBounds" />
          </mxGeometry>
        </mxCell>
        <mxCell id="AYSb7tiYscdiB1DCTlH--546" value="" style="shape=partialRectangle;html=1;whiteSpace=wrap;connectable=0;strokeColor=inherit;overflow=hidden;fillColor=none;top=0;left=0;bottom=0;right=0;pointerEvents=1;" parent="AYSb7tiYscdiB1DCTlH--542" vertex="1">
          <mxGeometry x="126" width="42" height="29" as="geometry">
            <mxRectangle width="42" height="29" as="alternateBounds" />
          </mxGeometry>
        </mxCell>
        <mxCell id="AYSb7tiYscdiB1DCTlH--547" value="" style="shape=partialRectangle;html=1;whiteSpace=wrap;connectable=0;strokeColor=inherit;overflow=hidden;fillColor=none;top=0;left=0;bottom=0;right=0;pointerEvents=1;" parent="AYSb7tiYscdiB1DCTlH--542" vertex="1">
          <mxGeometry x="168" width="42" height="29" as="geometry">
            <mxRectangle width="42" height="29" as="alternateBounds" />
          </mxGeometry>
        </mxCell>
        <mxCell id="AYSb7tiYscdiB1DCTlH--548" value="" style="shape=tableRow;horizontal=0;startSize=0;swimlaneHead=0;swimlaneBody=0;strokeColor=inherit;top=0;left=0;bottom=0;right=0;collapsible=0;dropTarget=0;fillColor=none;points=[[0,0.5],[1,0.5]];portConstraint=eastwest;" parent="AYSb7tiYscdiB1DCTlH--535" vertex="1">
          <mxGeometry y="58" width="210" height="29" as="geometry" />
        </mxCell>
        <mxCell id="AYSb7tiYscdiB1DCTlH--549" value="" style="shape=partialRectangle;html=1;whiteSpace=wrap;connectable=0;strokeColor=inherit;overflow=hidden;fillColor=none;top=0;left=0;bottom=0;right=0;pointerEvents=1;" parent="AYSb7tiYscdiB1DCTlH--548" vertex="1">
          <mxGeometry width="42" height="29" as="geometry">
            <mxRectangle width="42" height="29" as="alternateBounds" />
          </mxGeometry>
        </mxCell>
        <mxCell id="AYSb7tiYscdiB1DCTlH--550" value="" style="shape=partialRectangle;html=1;whiteSpace=wrap;connectable=0;strokeColor=inherit;overflow=hidden;fillColor=none;top=0;left=0;bottom=0;right=0;pointerEvents=1;" parent="AYSb7tiYscdiB1DCTlH--548" vertex="1">
          <mxGeometry x="42" width="42" height="29" as="geometry">
            <mxRectangle width="42" height="29" as="alternateBounds" />
          </mxGeometry>
        </mxCell>
        <mxCell id="AYSb7tiYscdiB1DCTlH--551" value="" style="shape=partialRectangle;html=1;whiteSpace=wrap;connectable=0;strokeColor=inherit;overflow=hidden;fillColor=none;top=0;left=0;bottom=0;right=0;pointerEvents=1;" parent="AYSb7tiYscdiB1DCTlH--548" vertex="1">
          <mxGeometry x="84" width="42" height="29" as="geometry">
            <mxRectangle width="42" height="29" as="alternateBounds" />
          </mxGeometry>
        </mxCell>
        <mxCell id="AYSb7tiYscdiB1DCTlH--552" value="" style="shape=partialRectangle;html=1;whiteSpace=wrap;connectable=0;strokeColor=inherit;overflow=hidden;fillColor=none;top=0;left=0;bottom=0;right=0;pointerEvents=1;" parent="AYSb7tiYscdiB1DCTlH--548" vertex="1">
          <mxGeometry x="126" width="42" height="29" as="geometry">
            <mxRectangle width="42" height="29" as="alternateBounds" />
          </mxGeometry>
        </mxCell>
        <mxCell id="AYSb7tiYscdiB1DCTlH--553" value="" style="shape=partialRectangle;html=1;whiteSpace=wrap;connectable=0;strokeColor=inherit;overflow=hidden;fillColor=none;top=0;left=0;bottom=0;right=0;pointerEvents=1;" parent="AYSb7tiYscdiB1DCTlH--548" vertex="1">
          <mxGeometry x="168" width="42" height="29" as="geometry">
            <mxRectangle width="42" height="29" as="alternateBounds" />
          </mxGeometry>
        </mxCell>
        <mxCell id="AYSb7tiYscdiB1DCTlH--554" value="" style="shape=tableRow;horizontal=0;startSize=0;swimlaneHead=0;swimlaneBody=0;strokeColor=inherit;top=0;left=0;bottom=0;right=0;collapsible=0;dropTarget=0;fillColor=none;points=[[0,0.5],[1,0.5]];portConstraint=eastwest;" parent="AYSb7tiYscdiB1DCTlH--535" vertex="1">
          <mxGeometry y="87" width="210" height="29" as="geometry" />
        </mxCell>
        <mxCell id="AYSb7tiYscdiB1DCTlH--555" value="" style="shape=partialRectangle;html=1;whiteSpace=wrap;connectable=0;strokeColor=inherit;overflow=hidden;fillColor=none;top=0;left=0;bottom=0;right=0;pointerEvents=1;" parent="AYSb7tiYscdiB1DCTlH--554" vertex="1">
          <mxGeometry width="42" height="29" as="geometry">
            <mxRectangle width="42" height="29" as="alternateBounds" />
          </mxGeometry>
        </mxCell>
        <mxCell id="AYSb7tiYscdiB1DCTlH--556" value="" style="shape=partialRectangle;html=1;whiteSpace=wrap;connectable=0;strokeColor=inherit;overflow=hidden;fillColor=none;top=0;left=0;bottom=0;right=0;pointerEvents=1;" parent="AYSb7tiYscdiB1DCTlH--554" vertex="1">
          <mxGeometry x="42" width="42" height="29" as="geometry">
            <mxRectangle width="42" height="29" as="alternateBounds" />
          </mxGeometry>
        </mxCell>
        <mxCell id="AYSb7tiYscdiB1DCTlH--557" value="" style="shape=partialRectangle;html=1;whiteSpace=wrap;connectable=0;strokeColor=inherit;overflow=hidden;fillColor=none;top=0;left=0;bottom=0;right=0;pointerEvents=1;" parent="AYSb7tiYscdiB1DCTlH--554" vertex="1">
          <mxGeometry x="84" width="42" height="29" as="geometry">
            <mxRectangle width="42" height="29" as="alternateBounds" />
          </mxGeometry>
        </mxCell>
        <mxCell id="AYSb7tiYscdiB1DCTlH--558" value="" style="shape=partialRectangle;html=1;whiteSpace=wrap;connectable=0;strokeColor=inherit;overflow=hidden;fillColor=none;top=0;left=0;bottom=0;right=0;pointerEvents=1;" parent="AYSb7tiYscdiB1DCTlH--554" vertex="1">
          <mxGeometry x="126" width="42" height="29" as="geometry">
            <mxRectangle width="42" height="29" as="alternateBounds" />
          </mxGeometry>
        </mxCell>
        <mxCell id="AYSb7tiYscdiB1DCTlH--559" value="" style="shape=partialRectangle;html=1;whiteSpace=wrap;connectable=0;strokeColor=inherit;overflow=hidden;fillColor=none;top=0;left=0;bottom=0;right=0;pointerEvents=1;" parent="AYSb7tiYscdiB1DCTlH--554" vertex="1">
          <mxGeometry x="168" width="42" height="29" as="geometry">
            <mxRectangle width="42" height="29" as="alternateBounds" />
          </mxGeometry>
        </mxCell>
        <mxCell id="AYSb7tiYscdiB1DCTlH--560" value="" style="shape=tableRow;horizontal=0;startSize=0;swimlaneHead=0;swimlaneBody=0;strokeColor=inherit;top=0;left=0;bottom=0;right=0;collapsible=0;dropTarget=0;fillColor=none;points=[[0,0.5],[1,0.5]];portConstraint=eastwest;" parent="AYSb7tiYscdiB1DCTlH--535" vertex="1">
          <mxGeometry y="116" width="210" height="29" as="geometry" />
        </mxCell>
        <mxCell id="AYSb7tiYscdiB1DCTlH--561" value="" style="shape=partialRectangle;html=1;whiteSpace=wrap;connectable=0;strokeColor=inherit;overflow=hidden;fillColor=none;top=0;left=0;bottom=0;right=0;pointerEvents=1;" parent="AYSb7tiYscdiB1DCTlH--560" vertex="1">
          <mxGeometry width="42" height="29" as="geometry">
            <mxRectangle width="42" height="29" as="alternateBounds" />
          </mxGeometry>
        </mxCell>
        <mxCell id="AYSb7tiYscdiB1DCTlH--562" value="" style="shape=partialRectangle;html=1;whiteSpace=wrap;connectable=0;strokeColor=inherit;overflow=hidden;fillColor=none;top=0;left=0;bottom=0;right=0;pointerEvents=1;" parent="AYSb7tiYscdiB1DCTlH--560" vertex="1">
          <mxGeometry x="42" width="42" height="29" as="geometry">
            <mxRectangle width="42" height="29" as="alternateBounds" />
          </mxGeometry>
        </mxCell>
        <mxCell id="AYSb7tiYscdiB1DCTlH--563" value="" style="shape=partialRectangle;html=1;whiteSpace=wrap;connectable=0;strokeColor=inherit;overflow=hidden;fillColor=none;top=0;left=0;bottom=0;right=0;pointerEvents=1;" parent="AYSb7tiYscdiB1DCTlH--560" vertex="1">
          <mxGeometry x="84" width="42" height="29" as="geometry">
            <mxRectangle width="42" height="29" as="alternateBounds" />
          </mxGeometry>
        </mxCell>
        <mxCell id="AYSb7tiYscdiB1DCTlH--564" value="" style="shape=partialRectangle;html=1;whiteSpace=wrap;connectable=0;strokeColor=inherit;overflow=hidden;fillColor=none;top=0;left=0;bottom=0;right=0;pointerEvents=1;" parent="AYSb7tiYscdiB1DCTlH--560" vertex="1">
          <mxGeometry x="126" width="42" height="29" as="geometry">
            <mxRectangle width="42" height="29" as="alternateBounds" />
          </mxGeometry>
        </mxCell>
        <mxCell id="AYSb7tiYscdiB1DCTlH--565" value="" style="shape=partialRectangle;html=1;whiteSpace=wrap;connectable=0;strokeColor=inherit;overflow=hidden;fillColor=none;top=0;left=0;bottom=0;right=0;pointerEvents=1;" parent="AYSb7tiYscdiB1DCTlH--560" vertex="1">
          <mxGeometry x="168" width="42" height="29" as="geometry">
            <mxRectangle width="42" height="29" as="alternateBounds" />
          </mxGeometry>
        </mxCell>
        <mxCell id="AYSb7tiYscdiB1DCTlH--575" value="Gridded population of the World" style="text;strokeColor=none;align=center;fillColor=none;html=1;verticalAlign=middle;whiteSpace=wrap;rounded=0;fontSize=19;fontStyle=1" parent="1" vertex="1">
          <mxGeometry x="119.63" y="-16" width="181.25" height="30" as="geometry" />
        </mxCell>
        <mxCell id="AYSb7tiYscdiB1DCTlH--576" value="Global Flood Database" style="text;strokeColor=none;align=center;fillColor=none;html=1;verticalAlign=middle;whiteSpace=wrap;rounded=0;fontSize=19;fontStyle=1" parent="1" vertex="1">
          <mxGeometry x="392.75" y="-16" width="172.5" height="30" as="geometry" />
        </mxCell>
        <mxCell id="AYSb7tiYscdiB1DCTlH--577" value="ERA5 Climate Data (SPI and SPEI)" style="text;strokeColor=none;align=center;fillColor=none;html=1;verticalAlign=middle;whiteSpace=wrap;rounded=0;fontSize=19;fontStyle=1" parent="1" vertex="1">
          <mxGeometry x="648.75" y="-16" width="181.25" height="30" as="geometry" />
        </mxCell>
        <mxCell id="AYSb7tiYscdiB1DCTlH--579" value="0.1Â° x 0.1Â°" style="text;strokeColor=none;align=center;fillColor=none;html=1;verticalAlign=middle;whiteSpace=wrap;rounded=0;fontSize=19;" parent="1" vertex="1">
          <mxGeometry x="393.75" y="417" width="172.5" height="30" as="geometry" />
        </mxCell>
        <mxCell id="AYSb7tiYscdiB1DCTlH--581" value="0.1Â° x 0.1Â°" style="text;strokeColor=none;align=center;fillColor=none;html=1;verticalAlign=middle;whiteSpace=wrap;rounded=0;fontSize=19;" parent="1" vertex="1">
          <mxGeometry x="124" y="417" width="172.5" height="30" as="geometry" />
        </mxCell>
        <mxCell id="AYSb7tiYscdiB1DCTlH--582" value="0.1Â° x 0.1Â°" style="text;strokeColor=none;align=center;fillColor=none;html=1;verticalAlign=middle;whiteSpace=wrap;rounded=0;fontSize=19;" parent="1" vertex="1">
          <mxGeometry x="649.75" y="417" width="172.5" height="30" as="geometry" />
        </mxCell>
        <mxCell id="AYSb7tiYscdiB1DCTlH--583" value="0.001Â° x 0.001Â°" style="text;strokeColor=none;align=center;fillColor=none;html=1;verticalAlign=middle;whiteSpace=wrap;rounded=0;fontSize=19;" parent="1" vertex="1">
          <mxGeometry x="393.75" y="30" width="172.5" height="30" as="geometry" />
        </mxCell>
        <mxCell id="AYSb7tiYscdiB1DCTlH--585" value="" style="shape=cross;whiteSpace=wrap;html=1;labelBackgroundColor=#000000;labelBorderColor=none;fillColor=#000000;" parent="1" vertex="1">
          <mxGeometry x="334" y="333" width="30" height="30" as="geometry" />
        </mxCell>
        <mxCell id="AYSb7tiYscdiB1DCTlH--586" value="" style="shape=cross;whiteSpace=wrap;html=1;labelBackgroundColor=#000000;labelBorderColor=none;fillColor=#000000;" parent="1" vertex="1">
          <mxGeometry x="594" y="333" width="30" height="30" as="geometry" />
        </mxCell>
        <mxCell id="zNuCAvF2H-qGm7bLW7wK-33" value="" style="shape=table;startSize=0;container=1;collapsible=0;childLayout=tableLayout;" vertex="1" parent="1">
          <mxGeometry x="892" y="273" width="210" height="144.9" as="geometry" />
        </mxCell>
        <mxCell id="zNuCAvF2H-qGm7bLW7wK-34" value="" style="shape=tableRow;horizontal=0;startSize=0;swimlaneHead=0;swimlaneBody=0;strokeColor=inherit;top=0;left=0;bottom=0;right=0;collapsible=0;dropTarget=0;fillColor=none;points=[[0,0.5],[1,0.5]];portConstraint=eastwest;" vertex="1" parent="zNuCAvF2H-qGm7bLW7wK-33">
          <mxGeometry width="210" height="29" as="geometry" />
        </mxCell>
        <mxCell id="zNuCAvF2H-qGm7bLW7wK-35" value="" style="shape=partialRectangle;html=1;whiteSpace=wrap;connectable=0;strokeColor=inherit;overflow=hidden;fillColor=none;top=0;left=0;bottom=0;right=0;pointerEvents=1;" vertex="1" parent="zNuCAvF2H-qGm7bLW7wK-34">
          <mxGeometry width="42" height="29" as="geometry">
            <mxRectangle width="42" height="29" as="alternateBounds" />
          </mxGeometry>
        </mxCell>
        <mxCell id="zNuCAvF2H-qGm7bLW7wK-36" value="" style="shape=partialRectangle;html=1;whiteSpace=wrap;connectable=0;strokeColor=inherit;overflow=hidden;fillColor=none;top=0;left=0;bottom=0;right=0;pointerEvents=1;" vertex="1" parent="zNuCAvF2H-qGm7bLW7wK-34">
          <mxGeometry x="42" width="42" height="29" as="geometry">
            <mxRectangle width="42" height="29" as="alternateBounds" />
          </mxGeometry>
        </mxCell>
        <mxCell id="zNuCAvF2H-qGm7bLW7wK-37" value="" style="shape=partialRectangle;html=1;whiteSpace=wrap;connectable=0;strokeColor=inherit;overflow=hidden;fillColor=none;top=0;left=0;bottom=0;right=0;pointerEvents=1;" vertex="1" parent="zNuCAvF2H-qGm7bLW7wK-34">
          <mxGeometry x="84" width="42" height="29" as="geometry">
            <mxRectangle width="42" height="29" as="alternateBounds" />
          </mxGeometry>
        </mxCell>
        <mxCell id="zNuCAvF2H-qGm7bLW7wK-38" value="" style="shape=partialRectangle;html=1;whiteSpace=wrap;connectable=0;strokeColor=inherit;overflow=hidden;fillColor=none;top=0;left=0;bottom=0;right=0;pointerEvents=1;" vertex="1" parent="zNuCAvF2H-qGm7bLW7wK-34">
          <mxGeometry x="126" width="42" height="29" as="geometry">
            <mxRectangle width="42" height="29" as="alternateBounds" />
          </mxGeometry>
        </mxCell>
        <mxCell id="zNuCAvF2H-qGm7bLW7wK-39" value="" style="shape=partialRectangle;html=1;whiteSpace=wrap;connectable=0;strokeColor=inherit;overflow=hidden;fillColor=none;top=0;left=0;bottom=0;right=0;pointerEvents=1;" vertex="1" parent="zNuCAvF2H-qGm7bLW7wK-34">
          <mxGeometry x="168" width="42" height="29" as="geometry">
            <mxRectangle width="42" height="29" as="alternateBounds" />
          </mxGeometry>
        </mxCell>
        <mxCell id="zNuCAvF2H-qGm7bLW7wK-40" value="" style="shape=tableRow;horizontal=0;startSize=0;swimlaneHead=0;swimlaneBody=0;strokeColor=inherit;top=0;left=0;bottom=0;right=0;collapsible=0;dropTarget=0;fillColor=none;points=[[0,0.5],[1,0.5]];portConstraint=eastwest;" vertex="1" parent="zNuCAvF2H-qGm7bLW7wK-33">
          <mxGeometry y="29" width="210" height="29" as="geometry" />
        </mxCell>
        <mxCell id="zNuCAvF2H-qGm7bLW7wK-41" value="" style="shape=partialRectangle;html=1;whiteSpace=wrap;connectable=0;strokeColor=inherit;overflow=hidden;fillColor=none;top=0;left=0;bottom=0;right=0;pointerEvents=1;" vertex="1" parent="zNuCAvF2H-qGm7bLW7wK-40">
          <mxGeometry width="42" height="29" as="geometry">
            <mxRectangle width="42" height="29" as="alternateBounds" />
          </mxGeometry>
        </mxCell>
        <mxCell id="zNuCAvF2H-qGm7bLW7wK-42" value="" style="shape=partialRectangle;html=1;whiteSpace=wrap;connectable=0;strokeColor=inherit;overflow=hidden;fillColor=none;top=0;left=0;bottom=0;right=0;pointerEvents=1;" vertex="1" parent="zNuCAvF2H-qGm7bLW7wK-40">
          <mxGeometry x="42" width="42" height="29" as="geometry">
            <mxRectangle width="42" height="29" as="alternateBounds" />
          </mxGeometry>
        </mxCell>
        <mxCell id="zNuCAvF2H-qGm7bLW7wK-43" value="" style="shape=partialRectangle;html=1;whiteSpace=wrap;connectable=0;strokeColor=inherit;overflow=hidden;fillColor=none;top=0;left=0;bottom=0;right=0;pointerEvents=1;" vertex="1" parent="zNuCAvF2H-qGm7bLW7wK-40">
          <mxGeometry x="84" width="42" height="29" as="geometry">
            <mxRectangle width="42" height="29" as="alternateBounds" />
          </mxGeometry>
        </mxCell>
        <mxCell id="zNuCAvF2H-qGm7bLW7wK-44" value="" style="shape=partialRectangle;html=1;whiteSpace=wrap;connectable=0;strokeColor=inherit;overflow=hidden;fillColor=none;top=0;left=0;bottom=0;right=0;pointerEvents=1;" vertex="1" parent="zNuCAvF2H-qGm7bLW7wK-40">
          <mxGeometry x="126" width="42" height="29" as="geometry">
            <mxRectangle width="42" height="29" as="alternateBounds" />
          </mxGeometry>
        </mxCell>
        <mxCell id="zNuCAvF2H-qGm7bLW7wK-45" value="" style="shape=partialRectangle;html=1;whiteSpace=wrap;connectable=0;strokeColor=inherit;overflow=hidden;fillColor=none;top=0;left=0;bottom=0;right=0;pointerEvents=1;" vertex="1" parent="zNuCAvF2H-qGm7bLW7wK-40">
          <mxGeometry x="168" width="42" height="29" as="geometry">
            <mxRectangle width="42" height="29" as="alternateBounds" />
          </mxGeometry>
        </mxCell>
        <mxCell id="zNuCAvF2H-qGm7bLW7wK-46" value="" style="shape=tableRow;horizontal=0;startSize=0;swimlaneHead=0;swimlaneBody=0;strokeColor=inherit;top=0;left=0;bottom=0;right=0;collapsible=0;dropTarget=0;fillColor=none;points=[[0,0.5],[1,0.5]];portConstraint=eastwest;" vertex="1" parent="zNuCAvF2H-qGm7bLW7wK-33">
          <mxGeometry y="58" width="210" height="29" as="geometry" />
        </mxCell>
        <mxCell id="zNuCAvF2H-qGm7bLW7wK-47" value="" style="shape=partialRectangle;html=1;whiteSpace=wrap;connectable=0;strokeColor=inherit;overflow=hidden;fillColor=none;top=0;left=0;bottom=0;right=0;pointerEvents=1;" vertex="1" parent="zNuCAvF2H-qGm7bLW7wK-46">
          <mxGeometry width="42" height="29" as="geometry">
            <mxRectangle width="42" height="29" as="alternateBounds" />
          </mxGeometry>
        </mxCell>
        <mxCell id="zNuCAvF2H-qGm7bLW7wK-48" value="" style="shape=partialRectangle;html=1;whiteSpace=wrap;connectable=0;strokeColor=inherit;overflow=hidden;fillColor=none;top=0;left=0;bottom=0;right=0;pointerEvents=1;" vertex="1" parent="zNuCAvF2H-qGm7bLW7wK-46">
          <mxGeometry x="42" width="42" height="29" as="geometry">
            <mxRectangle width="42" height="29" as="alternateBounds" />
          </mxGeometry>
        </mxCell>
        <mxCell id="zNuCAvF2H-qGm7bLW7wK-49" value="" style="shape=partialRectangle;html=1;whiteSpace=wrap;connectable=0;strokeColor=inherit;overflow=hidden;fillColor=none;top=0;left=0;bottom=0;right=0;pointerEvents=1;" vertex="1" parent="zNuCAvF2H-qGm7bLW7wK-46">
          <mxGeometry x="84" width="42" height="29" as="geometry">
            <mxRectangle width="42" height="29" as="alternateBounds" />
          </mxGeometry>
        </mxCell>
        <mxCell id="zNuCAvF2H-qGm7bLW7wK-50" value="" style="shape=partialRectangle;html=1;whiteSpace=wrap;connectable=0;strokeColor=inherit;overflow=hidden;fillColor=none;top=0;left=0;bottom=0;right=0;pointerEvents=1;" vertex="1" parent="zNuCAvF2H-qGm7bLW7wK-46">
          <mxGeometry x="126" width="42" height="29" as="geometry">
            <mxRectangle width="42" height="29" as="alternateBounds" />
          </mxGeometry>
        </mxCell>
        <mxCell id="zNuCAvF2H-qGm7bLW7wK-51" value="" style="shape=partialRectangle;html=1;whiteSpace=wrap;connectable=0;strokeColor=inherit;overflow=hidden;fillColor=none;top=0;left=0;bottom=0;right=0;pointerEvents=1;" vertex="1" parent="zNuCAvF2H-qGm7bLW7wK-46">
          <mxGeometry x="168" width="42" height="29" as="geometry">
            <mxRectangle width="42" height="29" as="alternateBounds" />
          </mxGeometry>
        </mxCell>
        <mxCell id="zNuCAvF2H-qGm7bLW7wK-52" value="" style="shape=tableRow;horizontal=0;startSize=0;swimlaneHead=0;swimlaneBody=0;strokeColor=inherit;top=0;left=0;bottom=0;right=0;collapsible=0;dropTarget=0;fillColor=none;points=[[0,0.5],[1,0.5]];portConstraint=eastwest;" vertex="1" parent="zNuCAvF2H-qGm7bLW7wK-33">
          <mxGeometry y="87" width="210" height="29" as="geometry" />
        </mxCell>
        <mxCell id="zNuCAvF2H-qGm7bLW7wK-53" value="" style="shape=partialRectangle;html=1;whiteSpace=wrap;connectable=0;strokeColor=inherit;overflow=hidden;fillColor=none;top=0;left=0;bottom=0;right=0;pointerEvents=1;" vertex="1" parent="zNuCAvF2H-qGm7bLW7wK-52">
          <mxGeometry width="42" height="29" as="geometry">
            <mxRectangle width="42" height="29" as="alternateBounds" />
          </mxGeometry>
        </mxCell>
        <mxCell id="zNuCAvF2H-qGm7bLW7wK-54" value="" style="shape=partialRectangle;html=1;whiteSpace=wrap;connectable=0;strokeColor=inherit;overflow=hidden;fillColor=none;top=0;left=0;bottom=0;right=0;pointerEvents=1;" vertex="1" parent="zNuCAvF2H-qGm7bLW7wK-52">
          <mxGeometry x="42" width="42" height="29" as="geometry">
            <mxRectangle width="42" height="29" as="alternateBounds" />
          </mxGeometry>
        </mxCell>
        <mxCell id="zNuCAvF2H-qGm7bLW7wK-55" value="" style="shape=partialRectangle;html=1;whiteSpace=wrap;connectable=0;strokeColor=inherit;overflow=hidden;fillColor=none;top=0;left=0;bottom=0;right=0;pointerEvents=1;" vertex="1" parent="zNuCAvF2H-qGm7bLW7wK-52">
          <mxGeometry x="84" width="42" height="29" as="geometry">
            <mxRectangle width="42" height="29" as="alternateBounds" />
          </mxGeometry>
        </mxCell>
        <mxCell id="zNuCAvF2H-qGm7bLW7wK-56" value="" style="shape=partialRectangle;html=1;whiteSpace=wrap;connectable=0;strokeColor=inherit;overflow=hidden;fillColor=none;top=0;left=0;bottom=0;right=0;pointerEvents=1;" vertex="1" parent="zNuCAvF2H-qGm7bLW7wK-52">
          <mxGeometry x="126" width="42" height="29" as="geometry">
            <mxRectangle width="42" height="29" as="alternateBounds" />
          </mxGeometry>
        </mxCell>
        <mxCell id="zNuCAvF2H-qGm7bLW7wK-57" value="" style="shape=partialRectangle;html=1;whiteSpace=wrap;connectable=0;strokeColor=inherit;overflow=hidden;fillColor=none;top=0;left=0;bottom=0;right=0;pointerEvents=1;" vertex="1" parent="zNuCAvF2H-qGm7bLW7wK-52">
          <mxGeometry x="168" width="42" height="29" as="geometry">
            <mxRectangle width="42" height="29" as="alternateBounds" />
          </mxGeometry>
        </mxCell>
        <mxCell id="zNuCAvF2H-qGm7bLW7wK-58" value="" style="shape=tableRow;horizontal=0;startSize=0;swimlaneHead=0;swimlaneBody=0;strokeColor=inherit;top=0;left=0;bottom=0;right=0;collapsible=0;dropTarget=0;fillColor=none;points=[[0,0.5],[1,0.5]];portConstraint=eastwest;" vertex="1" parent="zNuCAvF2H-qGm7bLW7wK-33">
          <mxGeometry y="116" width="210" height="29" as="geometry" />
        </mxCell>
        <mxCell id="zNuCAvF2H-qGm7bLW7wK-59" value="" style="shape=partialRectangle;html=1;whiteSpace=wrap;connectable=0;strokeColor=inherit;overflow=hidden;fillColor=none;top=0;left=0;bottom=0;right=0;pointerEvents=1;" vertex="1" parent="zNuCAvF2H-qGm7bLW7wK-58">
          <mxGeometry width="42" height="29" as="geometry">
            <mxRectangle width="42" height="29" as="alternateBounds" />
          </mxGeometry>
        </mxCell>
        <mxCell id="zNuCAvF2H-qGm7bLW7wK-60" value="" style="shape=partialRectangle;html=1;whiteSpace=wrap;connectable=0;strokeColor=inherit;overflow=hidden;fillColor=none;top=0;left=0;bottom=0;right=0;pointerEvents=1;" vertex="1" parent="zNuCAvF2H-qGm7bLW7wK-58">
          <mxGeometry x="42" width="42" height="29" as="geometry">
            <mxRectangle width="42" height="29" as="alternateBounds" />
          </mxGeometry>
        </mxCell>
        <mxCell id="zNuCAvF2H-qGm7bLW7wK-61" value="" style="shape=partialRectangle;html=1;whiteSpace=wrap;connectable=0;strokeColor=inherit;overflow=hidden;fillColor=none;top=0;left=0;bottom=0;right=0;pointerEvents=1;" vertex="1" parent="zNuCAvF2H-qGm7bLW7wK-58">
          <mxGeometry x="84" width="42" height="29" as="geometry">
            <mxRectangle width="42" height="29" as="alternateBounds" />
          </mxGeometry>
        </mxCell>
        <mxCell id="zNuCAvF2H-qGm7bLW7wK-62" value="" style="shape=partialRectangle;html=1;whiteSpace=wrap;connectable=0;strokeColor=inherit;overflow=hidden;fillColor=none;top=0;left=0;bottom=0;right=0;pointerEvents=1;" vertex="1" parent="zNuCAvF2H-qGm7bLW7wK-58">
          <mxGeometry x="126" width="42" height="29" as="geometry">
            <mxRectangle width="42" height="29" as="alternateBounds" />
          </mxGeometry>
        </mxCell>
        <mxCell id="zNuCAvF2H-qGm7bLW7wK-63" value="" style="shape=partialRectangle;html=1;whiteSpace=wrap;connectable=0;strokeColor=inherit;overflow=hidden;fillColor=none;top=0;left=0;bottom=0;right=0;pointerEvents=1;" vertex="1" parent="zNuCAvF2H-qGm7bLW7wK-58">
          <mxGeometry x="168" width="42" height="29" as="geometry">
            <mxRectangle width="42" height="29" as="alternateBounds" />
          </mxGeometry>
        </mxCell>
        <mxCell id="zNuCAvF2H-qGm7bLW7wK-64" value="WB Administrative&lt;div&gt;Boundaries&lt;/div&gt;" style="text;strokeColor=none;align=center;fillColor=none;html=1;verticalAlign=middle;whiteSpace=wrap;rounded=0;fontSize=19;fontStyle=1" vertex="1" parent="1">
          <mxGeometry x="909.75" y="-16" width="181.25" height="30" as="geometry" />
        </mxCell>
        <mxCell id="zNuCAvF2H-qGm7bLW7wK-65" value="" style="shape=cross;whiteSpace=wrap;html=1;labelBackgroundColor=#000000;labelBorderColor=none;fillColor=#000000;" vertex="1" parent="1">
          <mxGeometry x="851" y="333" width="30" height="30" as="geometry" />
        </mxCell>
        <mxCell id="zNuCAvF2H-qGm7bLW7wK-66" value="0.1Â° x 0.1Â°" style="text;strokeColor=none;align=center;fillColor=none;html=1;verticalAlign=middle;whiteSpace=wrap;rounded=0;fontSize=19;" vertex="1" parent="1">
          <mxGeometry x="914.13" y="417" width="172.5" height="30" as="geometry" />
        </mxCell>
      </root>
    </mxGraphModel>
  </diagram>
</mxfile>
